<svg xmlns="http://www.w3.org/2000/svg" width="1024" height="1024" fill="none">
  <path fill="#000" d="M764.188 543.823a114 114 0 0 1 3.378 3.139 64.7 64.7 0 0 1 10.105 12.164c1.144 1.864 2.844 4.839 3.76 6.638s2.256 4.807 3.008 6.704 1.963 5.722 2.682 8.502a128 128 0 0 1 1.831 7.978c.262 1.602.621 3.073.85 3.335s1.635.851 3.172 1.309a48.4 48.4 0 0 1 17.331 8.959 38.6 38.6 0 0 1 4.251 4.382 33.7 33.7 0 0 1 3.335 5.167 32.7 32.7 0 0 1 1.962 5.297c.552 2.411.772 4.886.654 7.357a29.8 29.8 0 0 1-2.125 12.36c-.294.785-.491 1.276-.557 1.832-.163 1.112.262 2.322 1.472 6.017a170 170 0 0 1 5.788 22.465q.658 4.09 1.145 8.207c.261 2.322.588 7.096.686 10.628.258 6.47-.081 12.95-1.014 19.357-.261 1.537-.948 4.415-1.504 6.377a38.2 38.2 0 0 1-6.67 13.407 41.2 41.2 0 0 1-15.173 11.412 71 71 0 0 1-6.606 2.29c-3.662 1.079-4.512 1.209-8.796 1.307-3.466.098-5.363 0-6.998-.392-1.275-.262-3.172-.85-4.251-1.308-1.896-.752-2.092-.785-5.1-.426-1.799.229-5.003.328-7.685.23-2.545.023-5.08-.33-7.521-1.047a39 39 0 0 1-5.46-2.224c-1.341-.752-3.467-2.059-4.612-2.942a42.2 42.2 0 0 1-8.861-9.745c-1.771-2.627-2.211-3.148-4.204-4.404.004-.49-.01-.954-.047-1.383a22.57 22.57 0 0 0-4.12-11.773l-2.813-2.746c-1.079-.948-2.027-1.897-2.158-2.126s.099-1.21.557-2.19a20.6 20.6 0 0 0 1.144-13.963 27.8 27.8 0 0 0-5.722-8.797c-1.455-1.343-3.25-2.439-8.588-4.401-.495-.936-.942-1.862-1.223-2.564-.621-1.504-1.307-3.662-1.504-4.839a36.3 36.3 0 0 1 0-11.445c.229-1.145.817-3.139 1.308-4.414.523-1.243 1.636-3.467 2.518-4.906a38.6 38.6 0 0 1 5.821-6.899 60.5 60.5 0 0 1 8.796-7.423c2.485-1.766 5.493-3.826 6.736-4.578 1.439-.85 2.42-1.668 2.616-2.191.161-.452.417-1.948.644-3.368a59 59 0 0 0 8.414-7.128c4.466-4.646 7.349-9.16 9.663-15.859 1.2-.551 3.172-1.301 4.627-1.766l4.382-1.309c.817-.196 1.439-.588 1.537-.915a10.8 10.8 0 0 0-.458-3.205c-.36-1.406-1.08-3.695-1.603-5.069a53 53 0 0 0-3.787-7.974 1806 1806 0 0 0 4.987-31.101m8.905 68.374c-4.644 0-6.41.131-9.484.752a75 75 0 0 0-7.095 1.865 92 92 0 0 0-15.304 6.867 133 133 0 0 0-8.829 5.199 79.7 79.7 0 0 0-13.178 10.268c-1.563 1.563-4.131 7.795-4.152 7.847 0 0-.491 2.551-.491 3.989q0 2.518.687 4.579c.39 1.195.882 2.355 1.471 3.466a14.06 14.06 0 0 0 5.592 5.069 13.1 13.1 0 0 0 7.914.457 20.3 20.3 0 0 0 8.109-4.48c1.112-.981 2.91-2.845 3.989-4.185 1.047-1.308 2.06-2.485 2.224-2.518.163-.031.327 2.029.294 5.166-.033 4.971-.098 5.331-.687 5.56-.261.098-.817.228-1.373.326h.196q1.733 0 3.205.687a8.8 8.8 0 0 1 2.452 1.864 17.98 17.98 0 0 1 3.858 11.412c0 1.373-.163 1.864-.719 2.387a79 79 0 0 1-4.675 3.335 64 64 0 0 0-7.619 6.247c-2.026 1.96-3.726 3.496-3.827 3.433-.065-.098 1.145-5.069 1.57-6.083s1.471-3.269 2.289-4.97c1.308-2.583 1.537-3.401 1.537-4.905 0-1.046-.262-2.386-.621-3.139-.36-.752-1.309-1.962-2.192-2.681-.98-.818-.719-1.21-1.307-1.439a1.08 1.08 0 0 0-.785.033 13.7 13.7 0 0 0-5.003 4.675c-.752.981-1.668 3.205-1.668 3.205-.015.038-1.539 3.865-1.897 5.297-.49 1.897-.653 3.761-.653 6.867-.065 3.074.097 5.069.522 6.868a22.24 22.24 0 0 0 9.712 13.733c1.56.848 3.19 1.56 4.872 2.126 2.551.818 3.206.883 8.176.883 4.839 0 5.755-.099 8.828-.916 2.387-.621 5.886-1.635 8.764-2.877 1.864-.785 4.905-2.289 6.605-3.565 3.336-2.452 5.494-5.591 6.671-7.03 1.21-1.439 2.355-2.682 2.551-2.747q.327-.098.196.556c-.098.392-2.616 7.325-2.616 7.325-.007.025-.658 2.263-1.308 3.597-.654 1.34-1.962 3.466-2.877 4.774a42.5 42.5 0 0 1-9.254 9.155l-3.205 2.126a2.3 2.3 0 0 0-.818 1.112c-.098.327.164 1.112.589 1.733.425.654 1.537 1.57 2.452 2.061a18.65 18.65 0 0 0 9.68 1.7 34.4 34.4 0 0 0 10.725-2.714 47.5 47.5 0 0 0 9.025-5.494c1.308-.981 3.335-2.583 4.513-3.597s3.597-2.42 4.774-4.088a32.4 32.4 0 0 1 4.316-5.003c.066.131-.621 2.813-1.079 4.709l-.458 1.864c-.098.59-.916 2.551-1.798 4.415-.883 1.863-2.649 4.741-3.924 6.409-1.275 1.667-2.518 3.433-2.714 3.858-.327.654-.262.916.163 1.308.392.425.883.49 1.962.327.817-.098 3.924-.196 5.788-.85s3.793-1.733 5.036-2.943c1.243-1.145 2.943-3.139 3.858-4.414a44.8 44.8 0 0 0 4.971-9.614 52 52 0 0 0 1.504-5.232q.651-3.173 1.145-6.377a101.4 101.4 0 0 0 .523-18.998 185 185 0 0 0-1.047-9.483c-.99-6.894-2.41-13.72-4.251-20.437-.752-2.616-1.994-6.573-2.811-8.829-.818-2.256-2.093-5.395-2.878-7.03a48 48 0 0 0-7.554-11.282 47.4 47.4 0 0 0-10.791-8.175 46.5 46.5 0 0 0-13.374-4.774 46 46 0 0 0-8.992-.622m1.635-19.162a51.7 51.7 0 0 0-12.426 1.636 15.4 15.4 0 0 0-4.578 1.994 11.1 11.1 0 0 0-2.78 2.813c-.556.85-.817 1.634-.817 2.648 0 1.21.163 1.635.98 2.355.524.523 1.799 1.177 2.845 1.471 1.472.458 3.532.588 8.928.719 3.858.065 8.96.327 11.347.654 2.548.312 5.08.749 7.586 1.309a59 59 0 0 1 6.311 1.962 64.8 64.8 0 0 1 12.196 6.474 138 138 0 0 1 6.05 4.153c1.341.981 3.565 2.746 4.905 3.858s2.616 2.322 2.746 2.682c.197.392.557-1.799.557-3.565a23.2 23.2 0 0 0-2.485-10.561c-.654-1.308-1.864-3.303-2.616-4.382-.785-1.079-2.355-2.878-3.499-3.957a37.6 37.6 0 0 0-9.909-6.572c-1.635-.785-4.25-1.864-5.885-2.42a63.1 63.1 0 0 0-19.456-3.271"/>
  <path fill="#000" d="M549.721 736.783c3.433 0 3.957.066 5.428.851 1.373.686 1.799 1.145 2.715 2.943.654 1.243 1.308 3.27 1.634 5.035q.556 2.976.556 7.685c0 2.616-.196 5.853-.425 7.194s-.916 3.597-1.537 5.003a23.5 23.5 0 0 1-5.134 8.044c-.981 1.014-2.681 2.322-3.76 2.91a45.4 45.4 0 0 1-11.184 3.793c-1.504.294-4.087.524-5.722.524-2.223 0-3.172-.131-3.663-.491-.621-.49-.588-.523.197-1.046.457-.295 1.929-1.635 3.27-3.042 1.962-1.961 2.812-3.139 4.022-5.558a38 38 0 0 0 2.191-5.723c.559-2.402.855-4.859.883-7.325.098-2.714.032-6.147-.164-8.011s-.751-4.578-1.209-6.213a11.8 11.8 0 0 1-.655-3.466c.099-.327.949-.916 1.864-1.308a27.5 27.5 0 0 1 10.693-1.799m-16.121 5.821c.262-.098.72 0 .981.294.262.23.818 2.224 1.276 4.349s.882 5.167.98 6.704c.164 1.962.066 3.76-.327 6.049a34 34 0 0 1-3.172 10.072 24 24 0 0 1-2.91 3.924 11.4 11.4 0 0 1-4.12 3.073 16 16 0 0 1-3.695 1.21c-.818.098-2.125.001-2.943-.228a22 22 0 0 1-3.139-1.309c-.916-.458-2.518-1.635-3.597-2.583a27.5 27.5 0 0 1-5.494-7.063c-.49-1.013-.555-1.471-.294-1.733.327-.327.883-.262 2.289.163 1.874.506 3.83.628 5.752.359 1.922-.27 3.77-.926 5.432-1.928a15 15 0 0 0 2.616-2.321 27 27 0 0 0 2.942-4.873c.883-1.799 2.355-5.036 3.271-7.128a65 65 0 0 1 2.68-5.33c.37-.661.871-1.24 1.472-1.701m-22.039-23.871a8.9 8.9 0 0 1 3.466-.294c.948.066 3.76.818 6.213 1.635a322 322 0 0 0 18.246 5.592c2.289.621 6.017 1.471 8.273 1.929 2.257.457 6.704 1.111 9.843 1.504 3.138.392 6.178.915 6.735 1.144.752.327 1.276.949 1.865 2.192.457.948.981 2.615 1.21 3.662.228 1.079.359 3.074.359 4.415a32.3 32.3 0 0 1-2.355 10.986c-.555 1.373-1.242 2.584-1.503 2.682-.262.13-.654-.001-.85-.197-.229-.229-.459-2.158-.557-4.709a22.2 22.2 0 0 0-1.307-7.553 19.3 19.3 0 0 0-2.126-4.545c-.524-.72-1.733-1.701-2.616-2.158-1.471-.753-2.093-.851-6.212-.949a32 32 0 0 0-7.358.425 25.2 25.2 0 0 0-9.712 4.382c-.915.687-2.355 2.322-3.205 3.63a49.5 49.5 0 0 0-3.172 6.115 177 177 0 0 1-3.041 6.866c-.883 1.733-2.06 3.597-2.91 4.448-.817.817-2.191 1.864-3.106 2.354a10.8 10.8 0 0 1-3.532.981 10.8 10.8 0 0 1-3.242-.245l-.453-.082a16 16 0 0 1-3.531-1.569 17.3 17.3 0 0 1-3.271-2.682c-.817-.883-2.092-2.943-2.877-4.578s-1.799-4.414-2.256-6.213c-.458-1.798-.916-4.513-1.014-6.049a22 22 0 0 1 .327-5.722c.294-1.602.915-4.055 1.373-5.429.458-1.373 1.308-3.367 1.962-4.414a17.7 17.7 0 0 1 2.191-2.943 26.5 26.5 0 0 1 8.143-4.611m201.299-3.336c.85 0 2.06.164 2.714.328.654.163 1.537.719 1.995 1.21.591.7 1.096 1.468 1.504 2.289a26.2 26.2 0 0 1 2.386 7.129c.277 1.949.342 3.922.197 5.885a40.8 40.8 0 0 1-2.159 10.954 27.4 27.4 0 0 1-1.961 3.924 15.4 15.4 0 0 1-3.172 3.695 28 28 0 0 1-4.577 2.878c-1.57.753-4.122 1.635-6.214 2.093-1.962.458-4.905.916-6.507 1.014-2.289.163-3.074.097-3.597-.295-.556-.425-.556-.49.523-1.405.621-.491 2.027-1.865 3.139-3.009a23.2 23.2 0 0 0 5.624-9.744c.556-1.668 1.178-4.415 1.374-6.213s.262-4.578.131-6.344a37.3 37.3 0 0 0-1.896-9.254c-.589-1.929-.655-2.257-.23-2.649.262-.262 1.374-.686 2.452-.981a79 79 0 0 1 4.35-1.013c1.308-.262 3.074-.492 3.924-.492m-15.369 4.808c.784-.458.981-.523 1.34-.229h.066c.327.196.883 1.243 1.243 2.387l.326 1.079c.327 1.406.851 3.728 1.047 5.166.258 1.842.324 3.705.196 5.56a36 36 0 0 1-.85 5.559 35.7 35.7 0 0 1-2.224 5.754 16.3 16.3 0 0 1-3.629 4.906 22 22 0 0 1-4.251 3.4l-1.243.556a6.9 6.9 0 0 1-2.878.622l-1.373-.131a5.9 5.9 0 0 1-1.962-.491 16.04 16.04 0 0 1-6.213-4.055 20.6 20.6 0 0 1-3.499-4.414 10.5 10.5 0 0 1-.817-1.896q-.066-.327 0-.491c.163-.294.851-.229 3.205-.098q1.896.164 2.942.098a7.8 7.8 0 0 0 2.224-.458 9.2 9.2 0 0 0 2.191-1.144 19 19 0 0 0 1.537-1.276 21.3 21.3 0 0 0 3.205-3.923c.719-1.178 1.896-3.631 2.616-5.429.785-1.798 1.83-4.153 2.353-5.232a26 26 0 0 1 1.799-3.041 13.1 13.1 0 0 1 2.649-2.779m20.961-16.48c1.079-.752 1.961-1.08 2.386-.982.36.098 1.767 1.145 3.075 2.355a12.4 12.4 0 0 1 3.433 4.283 22.9 22.9 0 0 1 1.962 8.993c0 1.014-.295 3.401-.654 5.265-.36 1.831-1.046 4.479-1.504 5.885s-1.113 2.878-1.44 3.27c-.327.425-.718.654-.849.523-.131-.13-.327-2.06-.458-4.251-.164-2.387-.556-5.035-.981-6.474-.392-1.341-1.21-3.434-1.864-4.644-.621-1.242-1.668-2.648-2.257-3.204a7.5 7.5 0 0 0-2.484-1.341c-.916-.229-2.846-.294-5.494-.196-2.976.131-4.905.393-7.194 1.047a19.95 19.95 0 0 0-12.655 9.351c-.719 1.341-2.322 4.546-3.499 7.162s-2.714 5.46-3.4 6.343a11.1 11.1 0 0 1-2.845 2.518c-.883.49-2.355.981-3.271 1.112-.981.098-2.321-.033-3.4-.327-.981-.294-2.616-.948-3.63-1.504-1.046-.556-2.321-1.472-2.877-2.06a25.8 25.8 0 0 1-4.643-7.979c-.556-1.537-1.341-4.153-1.701-5.788-.392-1.733-.589-3.629-.491-4.676.066-.948.295-1.895.458-2.059s2.878-.688 6.017-1.113a477 477 0 0 0 12.393-1.896c3.695-.621 8.829-1.472 11.445-1.864 2.616-.36 6.279-1.047 8.176-1.504a119 119 0 0 0 13.406-3.957c1.7-.654 3.859-1.667 4.84-2.288m-316.599-11.904a15.04 15.04 0 0 1 8.698 1.145c.589.392 1.472 1.439 1.962 2.322.523.981 1.21 3.336 1.734 5.886.691 2.722.933 5.538.718 8.338-.098 2.55-.424 5.069-.849 6.704a26.5 26.5 0 0 1-4.612 9.482 21 21 0 0 1-2.91 2.78 28.1 28.1 0 0 1-9.581 4.25c-2.026.427-4.081.7-6.147.818-1.896.065-3.694.066-4.022-.032q-.523-.197-.458-.589c.099-.229 1.21-1.407 2.452-2.616 1.308-1.243 2.845-3.139 3.499-4.218a38 38 0 0 0 1.962-3.793c.425-.981 1.079-3.303 1.504-5.102.589-2.518.753-4.251.785-7.553 0-2.943-.196-5.232-.589-7.194-.327-1.635-.883-3.597-1.275-4.382-.327-.817-.719-1.962-.817-2.518-.131-.817 0-1.111.654-1.536a15.7 15.7 0 0 1 2.616-1.178c.981-.327 3.074-.818 4.676-1.014m-11.02 4.676q.523.164 1.243 2.224c.392 1.177.981 3.499 1.275 5.167.392 2.289.49 4.087.359 7.03a35 35 0 0 1-.849 6.605c-.36 1.439-1.341 3.957-2.158 5.592q-1.44 3.008-3.238 4.775a15.7 15.7 0 0 1-3.826 2.844 8.5 8.5 0 0 1-3.204.981l-.421-.029a13.4 13.4 0 0 1-5.498-1.737 17.7 17.7 0 0 1-6.05-6.016 6.9 6.9 0 0 1-1.079-2.551c.098-.458.622-.523 3.695-.556 3.14 0 3.794-.131 5.167-.817a14.72 14.72 0 0 0 6.41-7.653c.882-1.831 1.896-4.643 2.289-6.278.392-1.635 1.242-3.891 1.863-5.068s1.635-2.682 2.289-3.368c.654-.654 1.439-1.21 1.733-1.145m1.21-87.177c1.897-.948 2.158-.981 3.597-.654a369 369 0 0 0 17.266 3.858q5.003 1.004 9.973 2.159c2.257.555 6.148 1.438 8.665 1.962l8.993 1.961q7.12 1.456 14.159 3.271c.654.163 1.21.523 1.21.752 0 .261-.393.556-.818.654s-3.498.523-6.768.85l-11.87 1.341c-3.237.359-8.339 1.046-11.282 1.471-2.943.458-7.358 1.308-9.81 1.962-2.453.589-5.494 1.635-6.802 2.289a21.2 21.2 0 0 0-4.479 3.107c-1.145 1.079-2.616 2.779-3.303 3.793-.687 1.013-1.569 2.845-1.994 4.088a21.3 21.3 0 0 0-.982 5.231c-.131 2.06-.36 3.139-.785 3.63a1.4 1.4 0 0 1-.326.392c-.425.229-1.113.066-4.056-.654-2.713-.654-3.988-.817-4.348-.589q-.49.328-.621.655-.066.36.392.882a4.9 4.9 0 0 0 1.798.851 459 459 0 0 1 19.849 5.755l15.794 4.905c4.407 1.306 8.065 2.514 8.174 2.615.225.998.335 2.02.328 3.042.032 1.57.196 4.055.392 5.559.157 1.451.486 2.878.982 4.251a10.1 10.1 0 0 0 1.536 2.452c.523.523 1.21.883 1.733.883.458 0 1.635-.491 2.616-1.079.981-.589 2.747-1.798 3.924-2.649a33 33 0 0 1 3.761-2.386 28.8 28.8 0 0 1 17.167-1.276c1.896.425 6.867 1.896 11.053 3.27l46.891 15.075c4.742 1.57 9.908 3.008 11.543 3.27 1.635.261 6.638.784 11.117 1.176 6.736.556 9.582.655 16.024.491 4.316-.098 9.809-.424 12.164-.686a895 895 0 0 0 31.98-4.088c4.872-.719 12.785-1.798 17.658-2.452 4.872-.654 12.883-1.734 17.821-2.453 4.937-.72 13.767-1.896 19.62-2.615s13.211-1.668 16.383-2.159c3.172-.425 7.88-1.34 10.464-1.962 2.583-.621 5.166-1.374 5.689-1.701s.981-.817.982-1.176c0-.36-.229-.785-.556-.949-.425-.294-1.603-.065-4.905.883-2.813.785-6.966 1.602-11.871 2.321-4.12.622-11.771 1.635-16.97 2.289-8.862 1.08-9.549 1.145-11.282.687a202 202 0 0 1-7.39-2.256 6079 6079 0 0 1-51.666-17.004 1287 1287 0 0 1-34.825-12.001 102 102 0 0 1-6.376-2.583c-1.537-.719-3.173-1.765-3.892-2.517a28 28 0 0 1-2.517-3.14c-.72-1.014-1.276-2.093-1.276-2.42 0-.392.197-.49.916-.359.491.098 2.354.687 4.152 1.341a31.4 31.4 0 0 0 8.83 1.733c7.609.736 15.268.801 22.889.195l12.983-.948c5.59-.49 7.095-.49 8.566-.163a7.9 7.9 0 0 1 2.485.981c.589.458.786 1.079.982 3.368.131 1.504.49 3.238.784 3.793s.916 1.308 1.406 1.635c.523.36 1.603.85 2.486 1.177a24 24 0 0 0 4.741.72 56 56 0 0 0 14.127-1.21c1.537-.327 4.251-1.079 6.016-1.635q3.27-.98 4.579-.883c.752.099 3.924.915 7.062 1.863l10.791 3.336a1114 1114 0 0 0 24.034 7.325 251 251 0 0 1 8.992 2.779c2.061.687 6.476 2.06 9.811 3.106a433 433 0 0 1 10.137 3.336c2.256.785 5.003 1.897 6.115 2.42a9.16 9.16 0 0 1 3.891 3.335 28.5 28.5 0 0 1 2.812 4.382 10.8 10.8 0 0 1 1.111 4.251 19.95 19.95 0 0 1-1.667 8.927c-.457.915-1.504 2.321-2.289 3.106a17 17 0 0 1-3.662 2.551 57 57 0 0 1-6.474 2.485c-2.322.752-7.554 2.028-11.609 2.78-4.055.817-11.478 2.126-16.513 2.943a1391 1391 0 0 1-18.149 2.812c-4.937.719-11.64 1.766-14.878 2.322a2764 2764 0 0 0-32.373 5.231 576 576 0 0 1-28.775 4.186c-2.878.359-8.11.949-11.609 1.308s-7.423.719-8.666.785c-1.242.065-3.531-.066-5.068-.294l-7.913-1.308a142 142 0 0 1-20.275-4.905c-3.171-1.014-8.01-2.518-10.79-3.335-2.91-.85-6.049-1.538-7.357-1.636-1.995-.163-2.616-.065-4.513.72q-2.224.85-3.27.752c-.557-.066-3.761-1.014-7.096-2.028l-17.494-5.493-17.167-5.363-12.427-3.924a1298 1298 0 0 0-24.36-7.782 405 405 0 0 1-12.328-4.12l-12.426-4.415-10.399-3.826a219 219 0 0 1-17.461-7.291q-3.205-1.505-4.611-2.944c-.752-.785-1.994-2.616-2.714-4.022-.752-1.439-1.569-3.466-1.864-4.512a47 47 0 0 1-.85-4.774c-.295-2.126-.294-3.794.033-6.705.196-2.125.653-5.034.98-6.473s1.145-4.153 1.799-6.05 2.125-5.33 3.27-7.685a53 53 0 0 1 4.185-7.03 51 51 0 0 1 16.154-13.505m-20.175 65.465a50.4 50.4 0 0 1 9.057 3.434 320 320 0 0 0 12.753 5.231l7.717 2.845c1.183.396 2.331.888 3.434 1.472q.555.391.392.654c-.099.098-1.57.327-3.269.523-1.635.197-4.318.752-5.887 1.242a33 33 0 0 0-4.938 2.125 17.34 17.34 0 0 0-6.867 7.358c-.686 1.242-1.602 3.662-2.027 5.33s-1.078 3.859-1.471 4.84c-.392.981-1.046 2.387-1.537 3.041-.6.89-1.255 1.743-1.962 2.551-.654.719-1.734 1.569-2.388 1.896a9.5 9.5 0 0 1-2.289.785c-.621.098-1.864 0-2.779-.229a17 17 0 0 1-3.368-1.341 10.8 10.8 0 0 1-2.583-1.897 23 23 0 0 1-2.093-3.596 34 34 0 0 1-3.237-11.772 21.3 21.3 0 0 1 0-5.395c.196-1.341.654-3.598.981-5.036a29.7 29.7 0 0 1 1.635-4.676 26.2 26.2 0 0 1 3.204-4.578 15.4 15.4 0 0 1 4.251-3.696 7.5 7.5 0 0 1 3.271-1.111m41.822 16.382c.262-.294 1.21-.097 3.499.687 1.342.404 2.635.952 3.858 1.635.687.523.72.883.72 3.303a28.8 28.8 0 0 1-2.158 10.627c-.425.85-.916 1.635-1.145 1.7q-.392.066-.555-1.308c-.098-.752-.229-2.583-.328-4.022a25.5 25.5 0 0 0-.882-4.904 33.4 33.4 0 0 0-2.747-6.279q-.654-1.112-.262-1.439M564.959 672.3c.393.065.916.49 1.145.98q.652 1.682 1.079 3.434c.327 1.406.719 3.859.85 5.494.13 2.092 0 3.793-.36 5.853a37 37 0 0 1-1.406 5.003c-.458 1.145-1.145 2.256-1.537 2.485-.393.229-2.681.425-6.245.458l-1.127.028c-2.587-.021-4.807-.114-5.152-.257-.425-.163-.751-.589-.751-.916s.49-1.177 1.111-1.896c.621-.72 1.602-2.092 2.223-3.073.654-.981 1.799-3.598 2.551-5.723s1.897-5.003 2.518-6.344c.687-1.471 1.799-3.074 2.747-4.022 1.144-1.145 1.831-1.57 2.354-1.504m12.23-3.924c2.093-.164 3.008-.065 4.12.327.785.327 1.733.915 2.093 1.308.359.392 1.144 1.635 1.7 2.747a21.6 21.6 0 0 1 1.995 9.417 35.3 35.3 0 0 1-1.766 10.136c-.261.654-.85 1.309-1.243 1.44-2.251.39-4.522.663-6.801.817l-6.704.687c-.359.033-.915 0-1.242-.066q-.654-.13-.458-1.013c.066-.491.49-2.224.915-3.826.592-2.184.857-4.443.785-6.704 0-2.059-.195-4.708-.424-5.885s-.818-3.205-1.276-4.546c-.654-1.995-.752-2.453-.359-2.845a12 12 0 0 1 3.204-1.111c1.537-.36 3.989-.752 5.461-.883m-31.49-16.546c.948 0 4.284 1.079 10.987 3.597 5.297 1.994 14.29 5.199 19.947 7.095l12.688 4.317c1.308.458 2.681 1.079 3.041 1.406.457.36.752 1.178 1.013 2.976.262 1.798.229 3.172-.065 5.068a26.5 26.5 0 0 1-1.439 5.232c-.622 1.406-1.243 2.649-1.439 2.714s-.524-.981-.72-2.289-.653-3.695-.98-5.363c-.327-1.667-1.014-3.858-1.504-4.904-.491-1.047-1.504-2.486-2.224-3.205a13.4 13.4 0 0 0-2.943-2.125c-1.504-.72-1.831-.753-5.231-.589a31.4 31.4 0 0 0-10.988 2.452 18 18 0 0 0-6.965 6.605c-.654 1.014-1.504 2.813-1.962 3.957-.425 1.145-1.21 3.303-1.668 4.742a20.9 20.9 0 0 1-4.218 7.587c-.589.588-1.733 1.471-2.583 1.896q-1.537.784-3.107.784c-.744-.028-1.813-.182-2.507-.395l-.272-.063c-.687-.261-1.602-.686-2.027-.948-.425-.294-1.309-1.144-1.995-1.929a35 35 0 0 1-4.905-9.908c-.261-1.079-.654-3.27-.85-4.905a30.1 30.1 0 0 1 .424-9.156 21.6 21.6 0 0 1 6.475-11.673c.719-.622 2.061-1.538 3.009-2.061a7.2 7.2 0 0 1 3.008-.915m-81.946-28.09c.654.033 3.728.654 6.868 1.406l11.445 2.65c3.139.687 8.305 1.961 11.444 2.746s8.306 1.962 11.446 2.616c3.138.654 7.127 1.504 8.828 1.962 1.733.425 3.99 1.079 5.004 1.472 1.013.392 1.863.817 1.863.948s-.556.36-1.21.458c-.688.131-4.774.523-9.09.883a289 289 0 0 0-22.563 2.681 30.1 30.1 0 0 0-11.118 3.368c-1.079.621-3.008 2.158-4.316 3.499-1.308 1.34-2.845 3.237-3.499 4.284a21.9 21.9 0 0 0-3.107 12.392c-.13 3.761-.326 5.593-.621 5.887-.294.294-1.864.425-5.722.425-4.512 0-5.69.13-7.913.784-1.439.393-3.369 1.145-4.285 1.636s-2.877 1.766-4.414 2.845c-1.504 1.046-3.139 1.962-3.663 2.027-.686.086-.922-.029-1.342-.891l-.162-.417c-.359-.784-.784-2.355-.98-3.532s-.327-3.531-.327-5.231c-.033-1.701.131-4.742.327-6.704a71 71 0 0 1 2.288-13.014c.327-1.243 1.244-3.565 1.963-5.2a36.6 36.6 0 0 1 5.852-9.711 27.8 27.8 0 0 1 4.775-4.186c1.602-1.079 4.742-2.91 6.998-4.022q4.087-2.06 5.231-2.061m168.665 15.73c1.145-.066 2.192.064 2.388.26.365.783.586 1.625.653 2.486.164 1.112.328 3.041.328 4.251 0 1.929-.098 2.256-.752 2.681a26 26 0 0 1-3.99 1.472 71 71 0 0 1-14.387 2.42h-3.598l-2.779-.458q-1.734-.36-2.617-1.243c-.653-.621-.98-1.439-1.242-2.976l-.523-3.466c-.131-1.013-.033-1.537.392-2.06.491-.621 1.277-.751 7.26-1.34 3.695-.36 8.992-.949 11.772-1.309q3.537-.466 7.095-.718M511.684 529.906a51.3 51.3 0 0 0 9.098 8.292c3.797 2.6 9.574 5.028 16.087 6.909l1.799 15.262c.524 4.578 1.505 11.51 2.126 15.368.622 3.859 1.57 8.731 2.093 10.791a87.4 87.4 0 0 0 4.578 14.094 59 59 0 0 0 3.171 6.409 27.1 27.1 0 0 0 7.129 7.455 23.5 23.5 0 0 0 3.858 1.897 26.5 26.5 0 0 0 4.906 1.308c1.537.229 6.213.393 11.019.393 4.578 0 11.216-.196 14.715-.393a492 492 0 0 0 31.229-2.878c4.872-.621 11.837-1.438 15.532-1.797a519 519 0 0 0 26.487-3.303l13.406-1.962a473 473 0 0 0 26.161-4.415 56.2 56.2 0 0 0 21.254-8.044 55.6 55.6 0 0 0 6.082-5.33 21.6 21.6 0 0 0 5.984-7.979 64 64 0 0 0 2.943-7.063 250 250 0 0 0 6.867-33.681l.656-4.213c.676-.159 1.389-.334 2.156-.528 4.233-1.077 8.073-2.327 11.581-3.782l-.267 1.852a1039 1039 0 0 0-3.596 24.133 402 402 0 0 1-1.276 8.24 498 498 0 0 1-3.695 19.587c-.523 2.584-1.242 5.298-1.635 6.05-.392.752-.785 1.832-.916 2.485a26 26 0 0 1-1.896 4.415c-.948 1.798-2.452 4.283-3.401 5.558-.948 1.243-2.975 3.565-4.545 5.102a56 56 0 0 1-6.801 5.493c-2.158 1.471-5.004 3.237-6.312 3.924-1.308.719-4.055 1.864-6.147 2.584-2.093.719-6.245 1.831-9.286 2.485a459 459 0 0 1-38.586 6.604c-3.434.426-8.797 1.243-11.936 1.734a490 490 0 0 1-16.546 2.289 1068 1068 0 0 1-31.719 3.662l-17.331 1.766c-5.918.654-13.962 1.374-17.821 1.635-3.858.262-9.155.457-11.771.457-2.289-.028-5.78-.206-8.304-.404l-1.081-.118c-2.518-.262-5.494-.654-6.606-.916-1.111-.294-3.106-.981-4.447-1.603a34.3 34.3 0 0 1-9.908-7.52c-1.177-1.308-3.401-4.283-4.938-6.572a78 78 0 0 1-4.381-7.522 82 82 0 0 1-3.041-7.717c-.818-2.419-1.832-6.409-2.29-8.829a1213 1213 0 0 1-5.591-34.171 796 796 0 0 1-4.251-32.242 696 696 0 0 0-.596-5.251m-35.472 57.08c.393-.392.752-.392 2.714.131l11.543 3.204c1.472.425 1.831.655 2.158 1.537.229.556.589 2.29.818 3.827a45 45 0 0 0 2.06 8.665c.36 1.046 1.766 11.739 10.202 15.958l2.943.653 18.509 4.153c.048.059 7.458 9.061 8.338 9.843.817.752 1.471 1.569 1.471 1.798q-.065.425-.72.426a51 51 0 0 1-3.636-.57l-1.202-.216a3433 3433 0 0 1-46.696-10.627l-14.551-3.401c-2.715-.654-7.489-1.668-10.53-2.289l-12.36-2.616a1380 1380 0 0 1-25.899-5.787l-12.098-2.616c-3.597-.72-8.993-1.897-11.936-2.617-2.943-.719-6.507-1.7-7.847-2.158s-3.826-1.569-5.494-2.452c-1.29-.734-3.306-2.037-5.015-3.24 1.054-1.121 2.401-.89 7.434-.586 6.678.415 16.534.126 22.259-.614a914 914 0 0 0 13.679 3.688c-.364-1.186-.842-3.694-1.328-6.412a152 152 0 0 0 15.122-4.947c.316 2.118.622 4.029.79 4.492.392 1.079 1.177 9.057 9.809 13.112a1347 1347 0 0 1 31.818 6.77l3.924.883a30 30 0 0 1-1.439-2.617c-.719-1.602-1.439-4.185-2.289-8.436a459 459 0 0 1-2.126-11.281c-.752-4.48-.817-5.265-.425-5.658m-2.651-17.664a2062 2062 0 0 0 20.57 5.762c3.859 1.079 7.914 2.19 8.993 2.419s4.252 1.079 7.031 1.864c2.779.752 5.265 1.57 5.526 1.799.262.231.882 2.716 1.405 5.461.524 2.747.884 5.591.851 6.31-.098 1.21-.196 1.308-1.079 1.374-.523.032-3.466-.556-6.54-1.374l-13.047-3.433a1005 1005 0 0 1-34.171-9.516l-4.442-1.319c5.694-3.238 11.022-6.569 14.903-9.347m7.426-24.453c3.4 1.079 4.773 1.701 5.1 2.224.295.425.981 4.48 1.701 9.712q.818 5.618 1.243 11.281c.032 2.223-.001 2.289-.785 2.354-.458.033-1.701-.262-2.78-.588l-4.414-1.308-4.677-1.309-.034-.01c1.292-1.04 2.271-1.945 2.847-2.67 3.63-4.578 4.872-9.484 3.564-14.389a14.7 14.7 0 0 0-2.299-5.466zm-84.3 1.308 12.752 3.924c3.139.915 10.562 3.205 16.514 5.036l5.776 1.761c-7.549 3.669-14.272 6.034-21.168 7.494l-1.547-.459-20.012-5.886-2.355-.682c-.238-3.417-.617-7.113-.915-8.604a58 58 0 0 0-1.596-6.511zm13.406-24.034c.353-.181.76-.228 1.145-.131l6.736 2.092c3.532 1.145 6.279 2.224 6.606 2.551.392.426.882 2.518 1.569 6.638a509 509 0 0 0 1.962 11.412c.556 2.976 1.014 5.985 1.047 6.704.065 1.177-.001 1.308-.752 1.373a28 28 0 0 1-4.306-1.038l-.6-.172c-2.256-.686-5.264-1.7-6.703-2.19-2.518-.883-2.649-.949-2.976-2.224-.229-.719-1.243-6.573-2.289-13.014-1.635-10.039-1.831-11.772-1.439-12.001m3.021-15.976q6.422 2.257 12.839 4.531l21.353 7.324a3954 3954 0 0 0 47.316 15.631c7.913 2.583 14.648 4.872 14.976 5.2.425.359.655 1.373.884 3.629l.653 5.591c.164 1.406.229 2.746.131 3.041q-.261.425-.915.458a215 215 0 0 1-12.034-3.761q-11.122-3.633-22.237-7.288a15 15 0 0 0-1.372-.755c-1.759-.906-2.168-1.092-4.368-1.131a12068 12068 0 0 1-30.98-10.248 15247 15247 0 0 0-30.848-10.216 18 18 0 0 0 1.516-2.374 50.4 50.4 0 0 0 3.086-9.632m-87.386-195.101a7.53 7.53 0 0 1 4.12 1.046q2.028 1.014 3.826 3.041a27.5 27.5 0 0 1 3.761 5.822c1.046 2.092 2.681 6.082 3.597 8.861a316 316 0 0 1 6.18 20.666c.544 2.08.98 4.187 1.308 6.311q.163 1.047-.033 1.471c-.164.425-.621.752-1.7 1.472a25 25 0 0 0-3.597 2.943 23.9 23.9 0 0 0-5.233 8.829c-.719 2.126-.915 3.368-1.045 6.638-.099 3.499-.066 4.316.555 6.147a20.3 20.3 0 0 0 1.799 3.859 18 18 0 0 0 2.682 3.074 28.4 28.4 0 0 0 8.959 5.134c1.7.687 3.336 1.471 3.663 1.798.392.327.98 3.173 2.222 10.465.883 5.493 2.093 12.458 2.617 15.532.523 3.073 1.079 6.507 1.177 7.651.131 1.21.196 1.701-.033 1.864q-.197.163-1.014 0l-3.564-.425c-2.06-.164-2.485-.098-3.989.654-.916.49-1.995 1.276-2.452 1.799a15.3 15.3 0 0 0-1.603 2.55c-.621 1.308-.784 2.126-.784 4.48 0 2.518.098 3.074.948 4.644.523 1.013 1.504 2.256 2.158 2.779.72.556 2.191 1.406 3.335 1.962 1.112.49 3.597 1.373 5.493 1.962 1.897.588 3.696 1.307 4.023 1.634.458.426.949 2.355 1.864 7.391l2.779 15.467c.981 5.624 1.406 8.731 1.177 8.96q-.327.325-2.42-.099c-1.929-.392-2.288-.359-3.694.164-.85.327-2.093 1.079-2.747 1.667s-1.537 1.766-1.962 2.649q-.785 1.57-.916 3.794a10.5 10.5 0 0 0 .393 3.858c.356 1.015.816 1.99 1.373 2.91.392.687 1.309 1.667 1.963 2.191.752.588 3.139 1.569 6.278 2.55 3.891 1.276 5.232 1.865 5.689 2.454a34.3 34.3 0 0 1 1.929 7.847l1.829 10.296c-4.708-5.789-11.001-9.925-18.833-12.356l-3.76-1.177-1.962-4.84a176 176 0 0 0-9.973-20.045q-.326-.572-.64-1.128-1.261-6.87-2.467-13.75a2946 2946 0 0 1-6.213-35.642l-3.596-20.503a1852 1852 0 0 1-5.134-28.547 624 624 0 0 0-4.088-21.582 259 259 0 0 0-4.545-19.031c-.621-2.191-1.668-5.461-2.322-7.194s-1.995-4.906-2.976-6.966c-1.536-3.171-1.831-4.152-1.962-6.114-.13-1.798-.032-2.845.524-4.578.392-1.373 1.308-3.139 2.289-4.545a27 27 0 0 1 3.139-3.695 23.5 23.5 0 0 1 7.194-4.186c1.733-.686 2.779-.883 4.414-.883m138.581 181.615c.327-.295 1.93.097 7.685 1.994 3.989 1.308 7.521 2.616 7.848 2.943.425.426.72 1.767 1.21 5.69l1.144 9.646 1.144 8.698q.621 4.251.295 4.84-.294.523-.72.556a84 84 0 0 1-4.97-1.472l-7.194-2.354c-2.616-.883-2.616-.883-3.008-2.518-.197-.883-.752-4.578-1.243-8.175l-1.7-12.982c-.719-5.099-.817-6.571-.491-6.866m59.743-45.42c2.354-.131 4.478-.131 4.774.032.294.098.622.49.753.752.098.294.359 2.911.522 5.821.164 2.911.556 9.875.817 15.434a775 775 0 0 0 1.178 18.475l.818 10.301q.701 8.457 1.248 16.926a20 20 0 0 1-1.804-1.852 58.9 58.9 0 0 1-8.698-17.527 243 243 0 0 1-6.41-27.926c-1.547-9.457-1.895-12.583-1.952-20.239q4.38-.008 8.754-.197M364.412 489.9c.784-.098 3.008.492 8.567 2.388 3.018.998 7.47 2.514 11.321 3.846-.845 4.402-1.121 7.444-1.217 11.458l-.057 2.192q-9.19-3.015-18.385-6.018c-1.079-.36-2.355-1.211-3.14-1.996q-1.34-1.34-1.765-2.811c-.196-.785-.327-2.191-.197-3.074a8.18 8.18 0 0 1 2.813-5.101 5.9 5.9 0 0 1 2.06-.884m404.822-64.483c2.06-1.21 2.648-1.438 3.041-1.111.332.355.559.797.654 1.274.098.491.033 4.056-.163 7.914a768 768 0 0 1-3.074 45.321 727 727 0 0 1-1.403 12.225c-1.934 3.762-4.233 7.004-6.968 9.881a40.6 40.6 0 0 1-8.385 7.099l1.845-15.831c.523-4.152 1.177-9.875 1.438-12.753.262-2.877.655-8.403.851-12.261.196-3.859.392-10.399.425-14.552s-.033-10.758-.164-14.715c-.13-3.955-.13-7.388 0-7.586a7.9 7.9 0 0 1 2.714-1.047c1.374-.359 3.402-1.013 4.546-1.504 1.145-.49 3.204-1.537 4.643-2.354m-349.33 71.775c.556 3.498.98 6.833.915 7.423q-.131.981-.589 1.113c-.231.027-2.687-.72-5.706-1.739l-.939-.329 1.741-9.116c.941-4.815 1.44-6.443 2.826-8.034zm26.618-28.828c8.549 2.99 21.56 7.427 32.273 11.007a1483 1483 0 0 1 15.411 5.238c1.286 6.03 2.529 11.257 3.788 15.866l-.233-.078-20.764-6.899a1278 1278 0 0 1-22.89-7.685 1970 1970 0 0 1-23.377-8.27c4.422-2.709 9.807-5.842 15.792-9.179m29.984-1.222c.523 4.152.884 7.782.785 8.077s-.523.49-.916.49c-.36 0-3.826-1.047-7.651-2.289-6.311-2.093-6.965-2.354-7.292-3.172-.193-.483-.764-4.627-1.249-9.301a801 801 0 0 1 14.44-7.464zm-123.408-31.13a4.9 4.9 0 0 1 2.714-.393 43 43 0 0 1 6.409 2.027l16.121 5.886a4445 4445 0 0 1 29.646 10.805 318 318 0 0 0-8.162 6.788c-1.59 1.376-2.915 2.56-4.04 3.67l-3.155-1.152a1547 1547 0 0 0-27.794-9.973 193 193 0 0 1-10.104-3.729 15 15 0 0 1-2.91-1.634 9 9 0 0 1-1.439-1.504 8.5 8.5 0 0 1-.589-6.082c.295-1.112.883-2.486 1.308-3.075.425-.588 1.341-1.307 1.995-1.634m38.716-23.707c.261-.425.752-.36 3.499.621 1.766.621 5.102 1.831 7.391 2.714q4.12 1.602 4.512 2.289c.164.36.719 3.009 1.144 5.919a1389 1389 0 0 0 3.761 22.104c.32 1.694.583 3.345.739 4.528q-1.3 1.013-2.564 2.014a28 28 0 0 1-2.95-1.081l-7.161-2.616c-2.158-.818-2.649-1.112-2.976-1.962-.229-.558-1.046-4.775-1.765-9.352-.72-4.578-1.831-11.282-2.452-14.879-.589-3.596-1.211-7.259-1.309-8.174-.131-.915-.065-1.863.131-2.125m211.192 1.935c5.917 2.791 10.149 6.23 12.964 10.49 2.685 4.034 4.664 8.862 5.92 14.308l-.197.015a4134 4134 0 0 1-51.476 3.064c5.073-3.145 8.938-4.059 16.978-4.863 3.27-.327 5.722-.752 6.54-1.079a6.35 6.35 0 0 0 3.345-3.031 6.35 6.35 0 0 0 .481-4.49c-.719-3.368-3.205-5.003-8.764-5.657a44.1 44.1 0 0 0-18.442 2.388c-9.305 3.623-20.37 12.409-22.874 17.934l-15.222.835c-6.048.377-12.959.684-16.97.764v-.437c-.033-8.534.032-9.778.686-12.426.85-3.662 1.896-5.985 3.793-8.568q2.779-3.74 7.941-6.743 5.7-.024 11.398-.224l1.654-.03c6.475-.163 15.761-.458 20.666-.654q16.721-.781 33.452-1.308c2.445-.072 5.33-.179 8.127-.288m139.344-15.467c4.304-.371 8.122-.145 11.94.648 8.927 1.831 13.505 5.428 17.495 13.602.919 1.893 1.587 3.363 2.118 4.741a8.84 8.84 0 0 1-2.87 3.206 35.7 35.7 0 0 1-9.875 4.84c-1.439.457-4.612 1.144-7.032 1.602-2.366.448-6.67 1.081-9.611 1.445-2.597-3.136-8.387-7.03-13.376-8.901-3.139-1.21-8.829-1.765-12.753-1.242-5.918.752-9.319 2.06-11.608 4.348-1.635 1.701-1.798 2.191-1.635 5.2.098 1.896.261 2.452 1.111 3.499q.235.265.49.511-7.843.695-15.688 1.378.152-.668.32-1.334c.916-3.662 3.467-8.73 6.279-12.491 4.054-5.33 8.632-8.862 16.676-12.818a73 73 0 0 1 4.948-2.34c2.347-.236 4.639-.453 6.399-.603 3.175-.265 6.339-.659 9.483-1.177 1.34-.262 3.237-.817 4.185-1.242s2.027-.982 2.355-1.276c.359-.327.654-.948.654-1.504zm-171.112-54.549c5.36-.2 10.727-.2 16.088 0 7.496.328 14.978.929 22.431 1.798 2.158.295 6.148.981 8.829 1.602a277 277 0 0 1 23.381 6.083l16.447 5.068a3381 3381 0 0 1 58.886 19.122c-3.811 1.144-7.882 2.451-10.522 3.408a104.6 104.6 0 0 0-21.144 10.51l-7.959-2.629a588 588 0 0 0-31.784-9.81c-2.779-.752-10.464-2.715-17.004-4.35s-14.388-3.466-17.331-4.12-8.993-1.635-13.407-2.223c-7.096-.949-8.895-1.08-15.86-1.08-4.316.001-11.281.197-15.532.426l-20.273 1.21c-6.933.458-16.514 1.014-21.255 1.276l-18.639 1.176-23.772 1.439a6364 6364 0 0 0-54.707 3.433l-23.871 1.603c-7.946.49-9.581.523-11.02.163-.948-.262-3.532-1.111-5.723-1.929l-8.762-3.27-9.156-3.401a118 118 0 0 1-6.116-2.517c-.948-.458-1.961-.785-2.256-.72a1.64 1.64 0 0 0-.916.687c-.294.523-.195.752.786 1.569a16.3 16.3 0 0 0 3.433 1.897l15.761 6.115a309 309 0 0 0 12.687 4.447 245 245 0 0 1 10.464 3.597c2.355.915 5.887 2.191 7.849 2.878l7.848 2.713 21.418 7.62a1542 1542 0 0 0 31.849 10.987l.385.126c-1.493 1.25-4.366 3.122-9.998 6.708a809 809 0 0 0-18.18 11.842q-1.505-.524-3.01-1.051a8567 8567 0 0 1-64.484-23.249 1290 1290 0 0 1-25.179-9.483c-2.256-.883-5.1-2.257-6.31-3.075a14.4 14.4 0 0 1-5.691-7.324c-.294-1.014-.522-2.845-.522-4.055a25.5 25.5 0 0 1 1.472-8.567c.359-.883 1.143-2.355 1.797-3.271a20.6 20.6 0 0 1 7.456-6.408c1.635-.784 3.957-1.602 6.213-2.06 1.962-.458 4.84-1.046 6.376-1.308 1.537-.261 4.84-.687 7.358-.981 2.518-.295 8.763-.85 13.897-1.177l17.266-1.309 15.695-1.275c4.251-.36 11.74-.883 16.579-1.177l23.707-1.307a3715 3715 0 0 0 50.358-3.107c5.134-.36 15.271-.949 22.465-1.308l22.889-1.145zm98.229 66.282c-1.111 1.864-2.223 3.465-2.42 3.597-.294.196-16.186 1.177-19.521 1.177-.916.033-1.341-.262-2.616-1.602a69 69 0 0 1-1.615-1.959q7.188-.594 14.368-1.279l12.53-1.106q-.359.574-.726 1.172m-118.504.131c.164 1.994.131 2.223-.49 2.55-.425.229-3.074.425-6.344.491-3.106.098-5.886.098-6.213 0-.285-.086-.645-.569-.84-1.124q5.9-2.055 13.495-3.585l.162-.027q.116.847.23 1.695m15.44-3.168c3.18-.073 6.364-.008 9.543.192 5.297.294 7.194.523 11.576 1.504a99 99 0 0 1 7.249 1.932 1.96 1.96 0 0 1-1.003.684 63 63 0 0 1-5.788.327c-2.779.098-6.148.229-7.488.328l-7.423.327c-4.611.163-5.003.13-5.592-.458-.425-.425-.687-1.309-.851-3.009a379 379 0 0 1-.223-1.827m66.245-27.21c.196-1.079.261-1.112 1.569-.982 3.741.8 7.44 1.783 11.085 2.944.458.163.916.589 1.014.981.098.393.066 2.453-.098 4.643-.196 2.158-.458 6.409-.654 9.352-.164 2.976-.327 6.54-.327 7.947 0 2.026-.131 2.648-.621 3.138q-.589.589-2.78.818l-.488.041-.264-.369a58 58 0 0 0-9.869-11.027l.909-12.254c.197-2.289.426-4.644.524-5.232m-181.287-2.355a75 75 0 0 1 12.065-.752c.327.098.785.622.982 1.21q.765 3.428 1.307 6.9l1.995 11.118c.556 2.877.916 5.821.883 6.54-.098 1.046-.229 1.308-.752 1.373-.314.029-2.657-.669-5.472-1.61l-1.199-.417c-3.727-1.308-6.278-2.387-6.605-2.78-.294-.359-.621-1.504-.752-2.55-.131-1.047-.817-5.037-1.504-8.895l-1.537-8.403c-.164-1.243-.098-1.407.589-1.734m285.901 21.542a15.7 15.7 0 0 1-3.867.89c-.335.053-.777.115-1.298.184a87 87 0 0 1 5.165-1.074m-199.378-27.134q5.46-.294 6.213 0a1.64 1.64 0 0 1 .883 1.08q.63 4.064 1.315 8.12a218 218 0 0 0-13.698 2.033l-1.351-8.976c-.164-.98-.098-1.21.49-1.537a36 36 0 0 1 6.148-.72m40.319-2.125c3.695-.098 7.749-.098 9.057.033 1.471.13 2.649.425 3.041.752.556.49.785 1.537 1.472 7.096.134 1.057.284 2.312.439 3.648-9.11-1.418-19.478-2.029-28.604-1.612l-.676-6.189c-.196-2.452-.164-2.518.588-2.845.458-.196 2.42-.392 4.382-.523zm-14.683-70.959c1.733-.359 2.649-.392 3.794-.13.817.196 1.961.556 2.55.883.84.478 1.639 1.025 2.387 1.635a19 19 0 0 1 2.845 3.139 58.2 58.2 0 0 1 5.886 11.445 275 275 0 0 1 6.05 18.05c.686 2.354 1.341 4.709 1.406 5.232.131.556.13 1.177 0 1.373-.164.262-2.911.425-8.895.556l-14.387.36c-3.172.131-5.886.066-6.116-.065a16 16 0 0 1-1.537-3.564c-.621-1.766-1.863-4.873-2.746-6.868-.883-1.994-2.649-5.722-3.957-8.338-1.667-3.269-2.19-4.284-2.256-5.297q-.065-.622.033-1.57a19.6 19.6 0 0 1 .85-4.054 19.3 19.3 0 0 1 1.798-3.597 33.4 33.4 0 0 1 8.306-7.783c.915-.491 2.714-1.145 3.989-1.407"/>
  <path fill="#000" fill-rule="evenodd" d="M647.624 547.289a44.2 44.2 0 0 0 11.903-.196 46 46 0 0 0 5.166-1.472 31 31 0 0 0 5.559-2.878 54.6 54.6 0 0 0 10.628-9.352 18.6 18.6 0 0 0 2.942-3.989 4.66 4.66 0 0 0-.032-2.224 3.93 3.93 0 0 0-1.177-1.798 3.6 3.6 0 0 0-2.224-.654q-1.374 0-2.387.752a70 70 0 0 0-4.513 4.088 50.4 50.4 0 0 1-5.428 4.676 30.4 30.4 0 0 1-9.679 3.76c-1.308.262-3.499.458-4.807.458a28.44 28.44 0 0 1-12.687-3.303c-1.112-.588-2.91-1.635-3.957-2.387l-3.27-2.256c-.719-.491-1.668-.981-2.125-1.112-.425-.098-1.243 0-1.799.164-.556.228-1.406.817-1.896 1.373a2.95 2.95 0 0 0-.916 2.06c0 .556.262 1.504.589 2.027s1.635 1.93 2.877 3.074a56 56 0 0 0 4.349 3.564 35.3 35.3 0 0 0 12.884 5.625m-90.513-1.635c1.799.163 7.096.229 11.772.163 4.774-.098 10.3-.359 12.589-.654 2.289-.294 5.559-.785 7.358-1.144a114 114 0 0 0 13.407-3.761c1.635-.588 4.414-1.733 6.213-2.518a60 60 0 0 0 5.951-3.139c1.472-.915 3.728-2.485 5.003-3.499a65 65 0 0 0 4.578-4.152 54.3 54.3 0 0 0 8.502-11.413 78 78 0 0 0 7.325-18.54c.981-3.368 2.583-9.647 3.597-13.963 1.013-4.317 2.485-10.922 3.27-14.715.85-3.793 1.896-8.044 2.354-9.483s1.308-3.662 1.962-4.905c.589-1.242 1.537-2.845 2.093-3.531a9.5 9.5 0 0 1 4.905-3.009 2.94 2.94 0 0 1 2.191.458 6.5 6.5 0 0 1 1.863 2.289c.589 1.144 1.472 4.741 2.976 12.36a260 260 0 0 0 8.175 33.06c1.177 3.499 2.943 8.24 3.859 10.496.981 2.289 2.616 5.527 3.662 7.227 1.406 2.256 2.943 4.153 5.69 6.867 2.093 2.125 4.741 4.447 5.918 5.199a56 56 0 0 0 5.069 2.78 78.2 78.2 0 0 0 21.124 6.572c1.7.327 6.376.622 10.431.72 4.709.131 8.764.065 11.281-.196a75.6 75.6 0 0 0 24.198-6.769 69 69 0 0 0 5.199-2.878 49.4 49.4 0 0 0 16.416-17.331c1.046-1.831 2.518-4.708 3.27-6.409s1.962-4.937 2.681-7.194a185 185 0 0 0 5.101-20.437c.654-3.237 1.603-8.96 2.126-12.753s1.439-10.398 1.962-14.715c.588-4.316 1.406-9.712 1.831-12.001a23.9 23.9 0 0 1 2.093-6.867 97 97 0 0 1 2.485-4.708c.85-1.472 1.242-2.616 1.471-4.415.164-1.308.327-5.559.327-9.417a233 233 0 0 0-.327-11.772 96 96 0 0 0-.654-5.951c-.196-.654-.654-1.668-1.079-2.289s-1.537-1.635-2.518-2.322-3.564-1.962-5.722-2.845a120 120 0 0 0-15.205-4.905 103 103 0 0 0-15.696-2.42 191 191 0 0 0-26.225 0c-3.009.262-7.783.752-10.628 1.079-3.27.425-6.278.981-8.273 1.635l-7.194 2.159a107.3 107.3 0 0 0-27.795 12.262 45 45 0 0 0-6.866 5.82 34 34 0 0 0-7.031 9.32 101 101 0 0 1-4.512 7.128q-.459.622-.851.916c-.85.654-2.158.654-7.324.654-4.742 0-8.077.163-10.53.523-2.943.425-3.858.458-5.068.131-1.047-.262-1.962-.85-3.107-2.06-.883-.948-2.583-3.107-3.727-4.807a114 114 0 0 0-3.794-5.232 54.6 54.6 0 0 0-7.88-7.848 51 51 0 0 0-11.216-6.54c-1.962-.883-5.559-2.256-7.946-3.074-2.387-.817-6.507-1.994-9.123-2.616a111.2 111.2 0 0 0-21.975-2.877c-5.657-.327-8.698-.327-14.976 0a238 238 0 0 0-24.329 2.518 333 333 0 0 0-24.23 5.068 240 240 0 0 0-24.819 7.75c-3.237 1.145-6.704 2.485-7.685 2.976a7.5 7.5 0 0 0-2.485 1.962 7.8 7.8 0 0 0-.915 3.4 12.4 12.4 0 0 1-.654 3.205c-.295.491-2.191 1.864-4.84 3.466a832 832 0 0 0-25.604 16.415 622 622 0 0 0-26.487 18.803c-2.877 2.158-7.52 5.788-10.235 8.044l-7.847 6.442a64 64 0 0 0-5.004 4.61 22 22 0 0 0-3.204 4.415c-.556 1.112-1.472 3.826-1.995 5.984a247 247 0 0 1-1.962 7.521c-.523 1.962-1.308 5.493-1.766 7.848l-1.536 8.338c-.393 2.256-.72 5.494-.753 7.194 0 2.747.099 3.303.916 4.905.491.981 1.472 2.42 2.224 3.139.719.752 2.125 1.799 3.139 2.289 1.7.85 2.191.949 5.166.949 2.714 0 3.597-.131 4.742-.687a13.4 13.4 0 0 0 5.559-6.148c.523-1.112 1.308-3.433 1.733-5.134.425-1.7 1.177-5.362 1.635-8.142l1.537-8.665c.327-1.962 1.013-4.349 1.471-5.298.458-.981 1.635-2.419 2.682-3.433s3.498-2.78 5.46-4.055a421 421 0 0 1 22.727-13.537 871 871 0 0 1 37.375-19.424c1.407-.654 1.93-.85 2.289-.719q.327.13.687.523c.425.458 1.668 2.583 2.747 4.741s2.485 5.559 3.139 7.521a195 195 0 0 1 6.213 25.212 186 186 0 0 0 5.755 22.889c.916 2.714 2.485 6.9 3.532 9.32 1.046 2.42 2.779 5.755 3.826 7.455 1.242 1.962 3.139 4.349 5.362 6.638 2.159 2.257 4.513 4.317 6.377 5.559 1.635 1.112 4.055 2.485 5.395 3.107a85.4 85.4 0 0 0 13.767 4.676 108 108 0 0 0 15.859 2.616m21.582-18.901c-4.251.818-5.821.981-11.608 1.079-3.695.066-7.587 0-8.666-.196l-5.755-.948a53.3 53.3 0 0 1-13.211-4.153c-1.242-.654-3.335-1.864-4.578-2.714a28 28 0 0 1-3.924-3.303 36 36 0 0 1-5.657-8.142 73.3 73.3 0 0 1-5.559-14.224 233 233 0 0 1-4.61-19.62 244 244 0 0 1-3.041-20.764c-.229-2.616-.425-7.39-.393-10.628 0-4.48.164-6.867.72-10.071.392-2.387 1.111-5.101 1.635-6.377a25.5 25.5 0 0 1 5.297-7.848 36.3 36.3 0 0 1 9.156-6.441 70.3 70.3 0 0 1 12.753-4.677 133 133 0 0 1 16.35-3.204c3.335-.458 6.932-.621 12.099-.621 6.18 0 8.109.13 12.098.784a102 102 0 0 1 15.925 3.794 57.3 57.3 0 0 1 12.59 6.016c1.308.883 3.073 2.191 3.924 2.943a33.7 33.7 0 0 1 6.866 9.32c.753 1.471 1.734 3.76 2.224 5.101a62 62 0 0 1 2.78 11.543c.352 2.844.581 5.703.686 8.567.154 3.6.045 7.207-.327 10.791a117.4 117.4 0 0 1-7.455 31.065 64.5 64.5 0 0 1-6.9 12.916 63 63 0 0 1-5.297 6.082 40.6 40.6 0 0 1-6.05 5.101 56.2 56.2 0 0 1-22.072 8.829m158.757-9.45c-2.223.327-4.46.545-6.703.654-1.962.098-4.578.066-5.788-.098-1.21-.163-3.27-.49-4.578-.752a37.3 37.3 0 0 1-9.058-3.335 30.4 30.4 0 0 1-7.913-6.41 56.2 56.2 0 0 1-6.835-10.856 103.7 103.7 0 0 1-8.011-26.029c-.458-2.779-1.046-6.671-1.308-8.665-.262-1.995-.621-6.213-.818-9.385a60.9 60.9 0 0 1 .981-17.494c.393-1.962.981-4.513 1.374-5.69.36-1.177 1.373-3.532 2.223-5.232a44.5 44.5 0 0 1 8.437-11.183 54 54 0 0 1 12.753-8.568c2.027-.981 5.101-2.419 6.867-3.106a73 73 0 0 1 13.309-4.055q3.825-.794 7.684-1.406c2.747-.392 4.872-.523 7.848-.36a50.5 50.5 0 0 1 7.259.85 31.1 31.1 0 0 1 10.857 4.317 22.6 22.6 0 0 1 6.539 6.932 54 54 0 0 1 5.069 10.856c.523 1.635 1.177 4.35 1.471 6.05s.654 4.447.851 6.049c.396 7.876.396 15.767 0 23.642a180 180 0 0 1-1.962 17.069 171 171 0 0 1-1.832 8.241c-.654 2.485-1.733 5.984-2.452 7.815s-2.027 4.741-2.943 6.475a40 40 0 0 1-3.205 5.264 70 70 0 0 1-9.973 10.072 59 59 0 0 1-9.189 5.297 61 61 0 0 1-10.954 3.074m-157.416-13.865a14.7 14.7 0 0 0 7.39-.523 21 21 0 0 0 2.55-1.275 17.3 17.3 0 0 0 5.069-5.527c.654-1.079 1.537-3.139 1.994-4.578a31.3 31.3 0 0 0 1.112-6.049 32 32 0 0 0-1.177-12.426c-.458-1.341-1.308-3.27-1.864-4.251s-1.831-2.616-2.812-3.597c-1.014-1.013-2.714-2.289-3.793-2.812-1.799-.883-2.256-.948-5.559-.948s-3.728.065-5.723 1.013a14.1 14.1 0 0 0-4.12 3.107 18.6 18.6 0 0 0-3.335 4.905 24.5 24.5 0 0 0-2.649 11.87c-.06 2.264.159 4.526.654 6.736a32 32 0 0 0 1.962 5.494 17.66 17.66 0 0 0 7.096 7.717c.883.457 2.354.981 3.205 1.144m119.844-21.778c.883.85 1.145.948 2.551.818 1.242-.131 2.354-.654 4.97-2.257 1.864-1.144 4.611-2.55 6.148-3.106a33 33 0 0 1 5.558-1.472 17.7 17.7 0 0 1 5.69 0c2.551.327 3.597.654 6.704 2.159a14.4 14.4 0 0 0 5.003 1.798c.948 0 1.537-.229 2.092-.817.622-.589.818-1.145.818-2.159 0-.752-.327-2.027-.719-2.812a16.7 16.7 0 0 0-2.878-3.499 20.6 20.6 0 0 0-9.679-5.003 19.3 19.3 0 0 0-5.526-.327c-1.635.131-3.826.458-4.905.72-1.079.327-3.009 1.046-4.317 1.635-1.308.654-3.466 2.027-4.807 3.106-1.34 1.079-3.531 2.943-4.806 4.153-1.308 1.243-2.551 2.681-2.845 3.27s-.393 1.341-.262 1.897a5.2 5.2 0 0 0 1.21 1.896m-112.323-.785c.523.164 1.308.229 1.765.131a5.3 5.3 0 0 0 1.537-.654 7.84 7.84 0 0 0 2.485-5.363c0-.817-.228-2.19-.555-3.008a7.5 7.5 0 0 0-1.701-2.518c-.883-.752-1.439-.981-2.485-.981-.752 0-1.766.262-2.354.654a6.22 6.22 0 0 0-2.616 5.232c0 1.145.196 2.355.588 3.172.327.752.981 1.733 1.504 2.224.491.457 1.308.981 1.832 1.111m-36.33-32.797c.622.621 1.145.784 2.355.784q1.57 0 2.746-.752c.654-.392 3.107-2.223 5.461-4.087s5.657-4.153 7.358-5.167c1.667-.981 4.251-2.191 5.689-2.746a38.9 38.9 0 0 1 12.361-2.126c2.354-.098 4.676-.327 5.166-.556s1.21-.719 1.537-1.177c.425-.491.654-1.308.654-2.158 0-.752-.229-1.668-.49-2.06-.262-.36-1.079-.916-1.799-1.21-.719-.294-2.812-.621-4.676-.72a49.4 49.4 0 0 0-12.491 1.047 46.1 46.1 0 0 0-14.388 7.194c-1.242.915-3.662 2.877-5.33 4.381a37.6 37.6 0 0 0-4.022 4.023 8.5 8.5 0 0 0-1.144 2.092 3.9 3.9 0 0 0 0 1.603c.13.457.588 1.21 1.013 1.635m185.08-12.688c2.028 1.177 3.303 1.7 4.121 1.7.654 0 1.373-.196 1.667-.392s.654-.752.883-1.144c.196-.393.36-1.21.36-1.799 0-.588-.262-1.504-.621-2.06-.36-.556-1.57-1.831-2.747-2.878-1.177-1.046-3.237-2.55-4.513-3.335s-3.597-1.896-5.166-2.485a17.3 17.3 0 0 0-6.867-1.21 29.1 29.1 0 0 0-11.151 1.439q-1.766.523-3.008 1.766c-.981.981-1.243 1.471-1.243 2.485 0 .719.295 1.733.622 2.289s1.046 1.177 1.635 1.406c.555.261 1.7.36 2.714.261.981-.065 3.27-.49 5.101-.882a11.77 11.77 0 0 1 6.343-.229 20.6 20.6 0 0 1 5.952 1.962q3.004 1.469 5.918 3.106"/>
  <path fill="#000" fill-rule="evenodd" d="M271.479 627.73c8.177.35 16.369.186 24.525-.49a89.6 89.6 0 0 0 23.38-6.933l3.303-1.7q.752-.392 1.177-.458c.556-.065 1.145.229 2.747 1.046 1.439.687 3.597 1.635 4.872 2.028 1.93.621 3.205.752 8.012.883 4.937.098 6.082.032 8.404-.524a41.5 41.5 0 0 0 10.725-4.447 49.7 49.7 0 0 0 10.235-9.09c1.275-1.504 3.074-3.957 4.022-5.494s2.289-3.989 2.943-5.493c.719-1.472 1.504-2.78 1.799-2.911.327-.098 2.779.066 5.493.393 4.088.458 6.54.556 13.767.392 6.867-.131 9.646-.327 12.589-.85a154 154 0 0 0 19.718-5.134c2.91-1.013 7.357-2.747 9.875-3.858a228 228 0 0 0 31.948-17.756l3.76-2.812a13.74 13.74 0 0 0 4.644-6.704 14.4 14.4 0 0 0 .686-3.989c-.055-2.53-.777-5-2.092-7.162-.425-.654-1.308-1.7-2.028-2.288a15.6 15.6 0 0 0-3.074-1.962c-1.504-.687-2.289-.851-4.578-.851a11.14 11.14 0 0 0-5.003.883 30.5 30.5 0 0 0-4.97 2.682l-5.493 3.564a241 241 0 0 1-13.146 7.848 131 131 0 0 1-17.298 7.913 95.4 95.4 0 0 1-14.519 3.891c-1.667.295-5.003.654-7.422.883-3.368.327-5.428.327-9.025 0a72 72 0 0 1-6.017-.654c-.72-.196-1.439-.523-1.57-.752s-.327-3.499-.36-7.292c-.098-5.199-.294-7.815-.817-10.758-.392-2.126-1.308-5.69-2.027-7.913-.72-2.224-2.093-5.33-2.976-6.9a38.3 38.3 0 0 0-6.932-8.796 46 46 0 0 0-8.895-5.853 30 30 0 0 0-8.077-2.453c-.882-.131-1.798-.425-2.027-.687-.229-.261-1.014-2.06-1.733-4.054-.719-1.962-1.962-5.102-2.747-6.9s-2.42-5.134-3.597-7.357a321 321 0 0 0-5.493-9.778 220 220 0 0 1-5.134-9.319c-.981-1.962-2.387-5.134-3.107-6.998-.686-1.864-1.765-5.428-2.387-7.946a155 155 0 0 1-3.27-19.227c-.294-2.616-.588-7.619-.654-11.118l-.523-15.206c-.163-4.839-.523-9.94-.752-11.281s-.785-3.564-1.177-4.905c-.393-1.341-1.177-3.401-1.733-4.578a16.7 16.7 0 0 0-3.499-4.578 17.3 17.3 0 0 0-4.905-3.662c-1.341-.654-3.63-1.537-5.068-1.929a22.6 22.6 0 0 0-6.867-.72c-3.401 0-4.775.131-6.867.72-1.439.392-4.022 1.406-5.723 2.256a17.3 17.3 0 0 0-5.755 4.153c-1.439 1.439-3.27 3.597-4.022 4.741-.752 1.177-2.027 3.466-2.812 5.069a55 55 0 0 0-4.317 14.649c-.327 2.42-.555 6.115-.588 9.385 0 2.943.163 7.455.392 9.973s1.079 9.058 1.897 14.552c1.21 7.913 1.504 10.529 1.373 12.687-.131 2.191-.359 3.107-1.308 5.101-.654 1.406-1.504 2.682-2.027 3.009-.818.523-1.079.523-5.396-.164a304 304 0 0 0-8.403-1.177 235 235 0 0 0-9.581-.818c-3.14-.196-7.325-.294-9.32-.196-1.962.131-4.774.491-6.213.85-1.439.36-3.728 1.112-5.068 1.635-1.341.589-3.466 1.635-4.709 2.388a33.3 33.3 0 0 0-8.894 8.403c-.785 1.21-1.962 3.368-2.616 4.742-.654 1.406-1.635 4.251-2.158 6.311-.981 3.728-.981 3.989-1.243 14.747-.196 9.647-.327 11.184-.883 12.753a25 25 0 0 1-2.191 4.186c-.85 1.308-1.962 3.303-2.485 4.414a41.86 41.86 0 0 0-2.976 20.307c.197 2.452.72 6.311 1.178 8.534a108 108 0 0 0 2.321 8.895 341 341 0 0 1 2.158 7.128c.589 2.093.622 2.616.229 5.952-.229 2.191-.327 5.362-.196 8.011.131 3.27.425 5.297 1.145 8.175a37 37 0 0 0 4.741 11.281 34.6 34.6 0 0 0 9.091 8.698c1.144.654 3.433 1.635 5.035 2.159s5.232 1.34 8.012 1.798a372 372 0 0 0 19.62 2.649q10.455 1.144 20.927 2.125M205.426 594.9c.327 1.962.981 4.577 1.406 5.853a29.1 29.1 0 0 0 4.905 6.638c.752.556 2.485 1.668 3.826 2.452a54.6 54.6 0 0 0 12.949 5.069 68 68 0 0 0 16.154 1.831c2.419 0 6.245-.164 8.502-.425a76 76 0 0 0 15.695-3.663 27.5 27.5 0 0 0 9.156-5.558c1.014-.981 2.224-2.388 2.714-3.14a23 23 0 0 0 1.537-3.335c.491-1.537.654-2.812.654-5.722 0-2.78-.163-4.251-.654-5.821-.327-1.177-1.21-2.976-1.896-4.055a17.7 17.7 0 0 0-2.714-3.204c-.785-.654-2.714-1.832-4.284-2.584a71 71 0 0 0-14.748-2.485 170 170 0 0 1-22.301-1.994c-2.158-.36-5.559-1.047-7.521-1.472-1.962-.458-4.12-1.144-4.741-1.537l-.229-.131c-.458-.261-.589-.327-.556-.654.033-.49 1.112-.784 1.112-.784l2.223-.033c.654-.033 5.036 0 9.712 0 4.676.065 12.688-.164 17.822-.425 5.133-.262 11.085-.752 13.243-1.047a55.3 55.3 0 0 0 11.674-2.452 27 27 0 0 0 4.905-2.224c1.144-.719 2.681-1.962 3.433-2.714s1.897-2.289 2.551-3.368 1.471-2.943 1.831-4.087c.425-1.308.752-3.499.85-5.723a23.2 23.2 0 0 0-1.766-11.085 28 28 0 0 0-2.125-3.957 24.2 24.2 0 0 0-8.568-5.46 301 301 0 0 0-21.614-3.499c-3.074-.393-8.142-.916-11.281-1.177a213 213 0 0 0-18.181-.458c-3.172 0-5.167 0-6.017-.327-.066 0-.033-.327 0-.654v-.458q0-.49 1.406-.916l4.382-1.144c1.667-.425 4.61-.981 6.54-1.243 1.962-.294 5.526-.654 7.913-.85 2.42-.163 6.54-.327 9.123-.327s8.24.327 12.59.687c4.349.359 10.333.719 13.308.719a25.84 25.84 0 0 0 12.426-2.125 14.7 14.7 0 0 0 5.821-5.625 16.36 16.36 0 0 0 1.537-8.861 26 26 0 0 0-1.014-5.036c-.458-1.308-1.439-3.368-2.224-4.578-.784-1.21-2.387-3.401-3.597-4.905a30.4 30.4 0 0 0-7.095-6.017c-1.864-1.046-4.448-1.569-6.05-2.027s-4.676-1.21-6.834-1.635a254 254 0 0 0-18.802-2.943c-2.42-.262-6.769-.589-9.647-.719a35.97 35.97 0 0 0-19.358 3.956 26.8 26.8 0 0 0-8.24 6.475 33 33 0 0 0-5.2 9.417c-.425 1.177-1.079 3.532-1.438 5.232-.491 2.485-.654 5.167-.883 13.571-.229 8.436-.36 10.791-.818 12a32 32 0 0 1-2.158 4.251c-.883 1.505-2.158 4.022-2.812 5.657s-1.439 4.186-1.766 5.723a48.7 48.7 0 0 0 .523 21.091c.425 1.962 1.308 5.363 1.962 7.521s1.537 5.461 1.995 7.325c.705 2.139.874 4.418.49 6.638-.196 1.766-.359 4.512-.359 6.115 0 1.602.294 4.48.654 6.442m68.015-142.604c1.308 8.731 1.537 13.898 1.537 13.898s2.06 1.177 3.466 2.517c1.308 1.243 3.728 3.074 5.33 4.088s4.905 2.877 7.325 4.185 5.526 3.107 6.867 3.957a58 58 0 0 1 4.153 3.074c.948.785 2.583 2.779 3.629 4.382 1.047 1.569 2.387 3.989 2.943 5.395a38.3 38.3 0 0 1 2.747 12.164c.294 3.009.294 4.873 0 7.685-.196 2.06-.916 6.213-1.602 9.287a35.3 35.3 0 0 0-1.243 10.66c0 3.924.131 5.689.589 7.521.327 1.308 1.177 3.825 1.864 5.558.686 1.734 2.191 4.677 3.335 6.54a48 48 0 0 0 10.399 11.445c1.635 1.276 2.943 2.453 2.943 2.616 0 .229-.589.327-1.374.229-.785-.065-3.106-.654-5.166-1.275-3.27-.981-4.251-1.112-7.194-1.112-3.172 0-3.597.066-5.363.981-1.079.556-2.649 1.635-3.499 2.485s-1.962 2.289-2.452 3.27a9.5 9.5 0 0 0-1.047 4.546c-.131 2.615 0 3.073 1.504 7.847a74 74 0 0 1 2.191 8.372c.327 1.962.491 3.989.36 5.199-.098 1.079-.491 3.074-.85 4.414-.36 1.341-.785 3.074-.883 3.793-.164 1.243-.098 1.407.981 2.289.654.524 1.668 1.112 2.289 1.308a22.6 22.6 0 0 0 8.829-.065 31 31 0 0 0 4.578-1.733 51 51 0 0 0 10.627-6.965 60.8 60.8 0 0 0 10.693-12.328c1.112-1.733 2.943-4.741 3.989-6.703 1.047-1.962 2.943-5.461 3.695-7.783.318-.982.723-1.934 1.21-2.845.327-.458.425-.425.72.393.196.523.359 1.831.327 2.943 0 1.111-.327 3.793-.818 5.951a186 186 0 0 0-1.439 8.011c-.359 2.322-.654 5.756-.654 7.946-.125 1.706.04 3.42.491 5.069.294.654.817 1.504 1.177 1.896.36.393 1.243.981 1.962 1.308s2.027.589 2.878.589c.85 0 2.289-.163 3.139-.392a15.7 15.7 0 0 0 3.793-1.897 32.7 32.7 0 0 0 4.774-4.186 52.6 52.6 0 0 0 8.698-12.752c1.962-3.794 4.742-12.819 5.069-15.238.327-2.551.556-6.638.556-9.647 0-3.924-.197-6.344-.753-9.81-.425-2.485-1.177-5.886-1.7-7.521s-1.537-4.153-2.289-5.657a46 46 0 0 0-2.681-4.741c-.752-1.112-2.257-2.943-3.336-4.12a35.3 35.3 0 0 0-8.371-6.213c-.981-.524-2.845-1.308-4.12-1.766a26 26 0 0 0-3.826-1.046c-1.21-.197-1.569-.131-1.7.228-.131.295.163 1.962.621 3.728a62.7 62.7 0 0 1 1.7 13.211c.099 2.42.033 6.344-.163 8.698a81.7 81.7 0 0 1-2.714 14.355c-.327 1.079-1.21 3.172-1.897 4.676-.686 1.472-1.438 2.682-1.635 2.682q-.392-.033-.163-.556a114.5 114.5 0 0 0 3.924-19.391c.392-3.597.49-6.475.359-9.81a88 88 0 0 0-2.485-16.71 80.5 80.5 0 0 0-4.872-13.701 183 183 0 0 0-9.843-18.639 156 156 0 0 1-5.101-9.319 85 85 0 0 1-6.965-23.413c-.359-2.42-.883-6.671-1.177-9.45-.294-2.78-.654-9.614-.817-15.206-.164-5.559-.458-12.72-.654-15.859-.229-3.532-.654-7.129-1.112-9.352a35.3 35.3 0 0 0-1.962-6.148 17 17 0 0 0-7.685-7.978 30 30 0 0 0-4.283-1.832c-.981-.294-2.911-.654-4.251-.817a21.4 21.4 0 0 0-5.003 0 27.5 27.5 0 0 0-9.679 3.139 29.4 29.4 0 0 0-7.75 7.161 45.8 45.8 0 0 0-5.33 11.086c-.523 1.635-1.308 4.414-1.668 6.213a51.7 51.7 0 0 0-.883 9.319c-.131 3.466-.033 7.848.164 10.3.196 2.355 1.111 9.254 2.027 15.369m30.378-114.187c.818.294 2.093.523 2.812.556.818 0 1.504-.196 1.766-.491a1.64 1.64 0 0 0 .262-1.21c-.098-.425-.818-1.962-1.603-3.466a9.5 9.5 0 0 1-1.537-5.134c-.098-1.537.033-3.008.393-4.12a22 22 0 0 1 1.733-3.891 28.8 28.8 0 0 1 9.058-8.796 39 39 0 0 1 4.708-2.224c1.832-.687 2.584-.785 4.578-.654 1.832.131 2.976.458 4.578 1.243 1.21.588 2.878 1.798 3.924 2.877 1.047.981 2.616 2.943 3.499 4.284 1.308 1.962 1.799 2.452 2.453 2.452.686 0 .915-.261 1.438-1.798.482-1.589.703-3.245.654-4.905 0-1.798-.196-4.251-.523-5.853-.327-1.504-1.079-3.892-1.667-5.265-.622-1.406-2.191-4.218-3.565-6.246a172 172 0 0 1-4.48-7.324 79 79 0 0 0-3.596-5.69l-3.27-4.741c-.949-1.439-2.518-4.186-3.467-6.083-.981-1.896-2.387-4.349-3.171-5.46-.785-1.112-2.388-3.172-3.597-4.611s-3.107-3.434-4.186-4.415-2.878-2.289-3.989-2.812c-1.145-.556-3.303-1.308-4.84-1.7-2.191-.556-3.335-.654-5.559-.523-1.537.098-3.957.556-5.395.981-1.439.425-3.826 1.308-5.298 1.864a27 27 0 0 0-4.12 1.962 28.5 28.5 0 0 0-3.564 3.204 58 58 0 0 0-3.989 4.905c-1.047 1.504-2.42 3.859-3.009 5.265-.654 1.406-1.439 3.793-1.831 5.297-.589 2.354-.654 3.335-.491 6.834a39.6 39.6 0 0 0 2.943 13.473c.654 1.504 2.159 4.61 3.401 6.965a250 250 0 0 0 4.186 7.521c1.046 1.798 2.877 4.577 4.087 6.212l5.396 7.685a52 52 0 0 0 6.736 8.24 30 30 0 0 0 5.101 4.284 31 31 0 0 0 3.041 1.308m242.141-11.216c.72.163 1.668.196 2.126.098a3.3 3.3 0 0 0 .948-.262c.065-.065.065-.556 0-1.046-.065-.491-.817-2.126-1.602-3.532a9.15 9.15 0 0 1-1.57-5.657 9.8 9.8 0 0 1 .556-4.839 27.5 27.5 0 0 1 6.344-9.091 19.3 19.3 0 0 1 10.366-5.755 12.75 12.75 0 0 1 7.422.752c.818.393 2.257 1.406 3.205 2.289s2.518 2.616 3.433 3.859c1.047 1.439 1.93 2.289 2.289 2.289s.851-.393 1.112-.883c.262-.491.622-1.701.818-2.649a23.6 23.6 0 0 0-.131-8.633 21.3 21.3 0 0 0-2.027-5.166 108 108 0 0 0-3.369-5.723l-3.662-5.885c-.981-1.635-3.172-5.069-4.905-7.685l-5.199-8.011a115 115 0 0 0-3.695-5.559 31.4 31.4 0 0 0-7.259-7.521 27.8 27.8 0 0 0-9.876-4.545 23.9 23.9 0 0 0-9.581-.033c-1.308.261-3.597 1.079-5.166 1.831-1.537.719-3.597 1.831-4.578 2.452a31 31 0 0 0-3.205 2.518 11.5 11.5 0 0 0-1.962 2.289c-.425.851-.425 1.014 0 1.439.229.262 1.21.654 2.093.883s2.354.785 3.172 1.21a18.65 18.65 0 0 1 6.213 5.657 42.5 42.5 0 0 1 4.709 11.347c.396 2.651.506 5.337.327 8.011a30.4 30.4 0 0 1-3.074 14.061 23.3 23.3 0 0 1-2.616 3.989c-.85.981-2.387 2.289-3.466 3.041a8.8 8.8 0 0 0-2.126 1.832c-.098.261.164 1.242.654 2.191a56 56 0 0 0 8.567 11.51c1.701 1.733 4.317 3.858 6.279 5.166a32.3 32.3 0 0 0 5.232 2.845c1.046.393 2.485.818 3.204.949m-200.155-16.873c.654.555 1.112.588 6.573.392 3.237-.098 8.535-.327 11.772-.523l13.734-.654q4.998-.159 9.973-.654c1.177-.196 6.213-.556 11.216-.818l56.473-2.779c10.333-.523 23.151-1.276 28.448-1.635 5.298-.36 15.827-1.047 23.413-1.439 13.734-.752 13.734-.752 15.467-1.7a11.1 11.1 0 0 0 2.714-2.093 24.5 24.5 0 0 0 2.289-3.924c.72-1.504 1.766-4.447 2.322-6.54.883-3.27.981-4.251.981-7.783a26.8 26.8 0 0 0-.883-7.292c-.458-1.831-1.406-4.545-2.158-6.049a17.33 17.33 0 0 0-7.194-8.012 9.16 9.16 0 0 0-4.84-1.242c-1.536-.065-5.558 0-8.861.229l-13.407.85c-4.055.262-10.693.654-14.78.817l-37.932 1.799c-5.82.262-14.617.654-19.554.817l-17.658.818-18.312.981c-5.297.294-16.35.785-24.525 1.144l-33.942 1.603c-3.27.196-4.447.359-4.872.752-.458.49-.458.654.327 1.962.425.817 1.537 2.583 2.452 3.924.916 1.34 2.616 3.924 3.728 5.82s3.63 5.723 5.559 8.502c1.864 2.812 4.251 6.475 5.297 8.175 1.047 1.701 2.42 4.251 3.009 5.657.654 1.439 1.438 3.891 1.798 5.428q.72 2.813 1.406 3.434m-20.993-9.352c.425.196 1.079.359 1.471.359s1.145-.327 1.635-.752c.818-.719.916-.981.916-2.877 0-1.733-.196-2.485-1.373-4.905-.752-1.57-2.289-4.251-3.401-6.05s-2.878-4.578-3.891-6.311a357 357 0 0 0-8.012-12.589c-.785-1.079-2.485-3.139-3.826-4.578-1.308-1.406-3.27-3.139-4.283-3.793a12.43 12.43 0 0 0-6.802-2.355c-.915 0-1.896.197-2.387.556-.51.334-.936.782-1.243 1.308a2.94 2.94 0 0 0-.13 1.635c.163.654.85 1.145 3.302 2.355a13.4 13.4 0 0 1 4.676 3.237 52 52 0 0 1 3.892 5.265c1.275 1.962 3.27 5.101 4.414 6.997 1.145 1.897 3.761 5.952 5.821 8.993s4.806 7.259 6.114 9.352a20 20 0 0 0 3.107 4.153m240.67-12.884c.588.262 1.471.523 1.929.523s1.177-.327 1.635-.817c.621-.687.752-1.177.752-2.616-.033-1.472-.327-2.289-2.158-5.788a245 245 0 0 0-14.224-23.413c-.818-1.145-2.289-2.714-3.303-3.532a33.7 33.7 0 0 0-4.807-2.943c-2.027-.981-3.532-1.537-4.807-1.635a6.5 6.5 0 0 0-2.845.164 2.94 2.94 0 0 0-1.34 1.341q-.393.981-.099 1.863c.229.654 1.112 1.407 3.401 2.813 1.701 1.013 3.924 2.616 4.938 3.531 1.144.981 2.845 3.074 4.316 5.298a361 361 0 0 1 10.595 17.232c.981 1.701 2.518 4.088 3.368 5.265s2.093 2.42 2.681 2.714m-224.254-11.249c1.079.164 4.316.229 7.194.131 2.877-.098 8.927-.392 13.407-.654l18.312-.948c5.558-.262 12.654-.621 15.695-.818 3.041-.163 9.483-.49 14.225-.654l15.205-.654 19.947-.981a2297 2297 0 0 0 35.381-1.962c2.845-.163 9.352-.457 14.486-.654a532 532 0 0 0 13.243-.621c2.943-.196 4.382-.458 5.69-1.014.981-.425 2.027-1.079 2.354-1.438.327-.327.622-1.014.622-1.472s-.229-1.112-.458-1.406c-.229-.327-.981-.817-1.602-1.079s-1.962-.556-2.911-.654c-.948-.098-5.003-.065-9.025.131q-16.47.642-32.928 1.504l-31.261 1.471-14.65.818-18.311.981a3185 3185 0 0 1-39.077 1.962l-16.219.817c-3.27.197-7.423.654-9.221.981a26 26 0 0 0-4.382 1.178c-.686.327-1.242.85-1.34 1.308a1.95 1.95 0 0 0 .327 1.569c.261.425 1.111 1.014 1.896 1.308.785.327 2.289.654 3.368.85"/>
</svg>
