<svg height="1024" viewBox="0 0 2048 2048" width="1024" xmlns="http://www.w3.org/2000/svg" xmlns:xlink="http://www.w3.org/1999/xlink"><mask id="a" maskUnits="userSpaceOnUse"><path d="m389.1 374.5h1431.2v1475.5h-1431.2z" fill="#fff"/><path d="m261 1389.5c-35-3.2-89.3-10-111.1-14a130 130 0 0 1 -38-11.7c-34.9-18-56.5-63.4-53.3-111.8 1.2-18.8 1-20-5-41-10.5-35.9-13.1-52.5-12.4-78.3.8-24.8 5.2-41.1 16.6-60.8a93 93 0 0 0 7-14.4c.6-2.2 1.6-17.4 2.2-33.7 1.3-34.5 2.5-44.4 7.5-58.8a102 102 0 0 1 65.2-65.3c22-8 48.3-8.2 104.2-1.1a156 156 0 0 0 21.3 1.8c1.1-.3 2.8-2.5 3.9-4.7 3-6.7 2.4-18.5-2.7-56.3-8.5-63.3-7.2-97.2 4.7-131 11-31.2 30-53.9 53.4-63.7 15-6.3 17.4-6.7 38-6.7 18.5 0 19.4 0 27.8 3a71 71 0 0 1 50 54.1c3.2 12 4.4 24.3 5.7 55.9 2.9 70.7 3.6 80 8.6 106.8 6.9 37.4 14.5 56.7 39.4 100.2a538 538 0 0 1 30.5 61.3l6 14.8 11.5 3.6c46.7 14.5 75.5 48.8 85.4 101.8 1 5 2.3 18.1 3 29.3.6 11 1.7 20.7 2.2 21.2 2.1 2.1 25.8 3.3 39.3 2 51.8-4.8 92.8-21.3 161.1-64.8 9-5.8 20.3-12.4 25-14.6l8.5-4.1h13c13 0 13.2 0 20 3.5a45 45 0 0 1 24.6 31.8c4 15 .2 30-10.9 44-11.9 15-79.7 55.4-124.1 74a466 466 0 0 1 -86.6 25.7c-16.2 2.8-50.5 4-73 2.6-23.2-1.4-20.8-2.3-28.3 10.7-19.6 34.2-46.2 57.5-76.7 67.5-18 6-26 6.7-49.8 4.7a61 61 0 0 1 -21-4.6c-16.5-6.4-14-6.3-26.6-.5a279 279 0 0 1 -66.6 20.3c-9.3 1.7-16.6 2-48 2.3-25.5.3-41.5 0-51.5-1m1168.5-244.5a120 120 0 0 1 -61.2-31.7c-8.3-8-11.6-13.1-12.8-19.6-.4-2-1-3.9-1.4-4.1s-5.1 3-10.6 7c-27.1 20-72.6 36.5-114.5 41.4a702 702 0 0 1 -82.2 1c-39.9-3.3-84.2-16.6-106.4-31.8a157 157 0 0 1 -41-43c-16.7-28-28.2-63.2-41.4-126.2-9-42.6-14.8-64-22.7-83.5-5.8-14.2-8.2-18.5-10.5-18.5-2 0-45.1 21.7-78.8 39.8-57.3 30.6-104.7 59.2-116.3 70.1-6.8 6.4-8.3 9.9-11.8 27.8l-5.4 28.3a154 154 0 0 1 -10.8 36.7 55 55 0 0 1 -20.2 21.3c-4.6 2.3-6 2.5-19 2.5-14 0-14-.1-20.2-3.4-7.5-4-17-13.7-20.8-21l-2.7-5.5.5-19c.5-21 2.6-33.3 12.3-72.6 10.3-41.7 13.6-47.6 38.9-69.5 47.7-41.1 113.2-88.3 192.5-138.5 31.1-19.8 34.7-22.5 35.6-27.8 2.5-15.3 7.3-20.5 26-28.1a852 852 0 0 1 111.4-34.5c47.7-10.9 83.7-16 132-18.7 36-2 79 1.4 112 8.7a323 323 0 0 1 70 25.2 177 177 0 0 1 58.3 53.6 207 207 0 0 0 11.7 15c3.9 4.1 5.2 5 8 4.9 10.2 0 58.8-3 59.7-3.6.6-.4 4-5.3 7.4-11 17.7-28.9 30.1-43.5 47.5-55.9a320 320 0 0 1 66.6-33.4c16-5.8 49.2-15.8 59.3-17.8 41.8-8.3 124.9-8.8 165-1 29.7 5.7 63.3 17.5 80 27.9 11.3 7 15.8 15 17.4 31.4a724 724 0 0 1 0 79.6c-.6 2.2-4 10-7.4 17.5s-7 15.8-7.8 18.5c-2.1 6.6-4.7 22-10.2 62.5a836 836 0 0 1 -17.1 97.5c-10.3 41.3-19.9 65.2-35.4 87.9-25 36.5-57.4 57.6-108.5 70.6-22.1 5.6-29.6 6.3-65.1 5.7-32.6-.5-37.9-1-58.9-6.3a209 209 0 0 1 -72.9-34.4c-.1 0 .2 2.4.7 5.3 1.3 7.2.3 11.6-4 18.1-4 6-16 18.6-25.8 27.1a120 120 0 0 1 -48 25.6c-9.2 2.2-31.7 3.3-41 2m34.1-49.5c13.5-3 23-9 39.8-24.5 13.6-12.6 16.9-14.4 25.8-14.4a21 21 0 0 0 6.8-.5 77 77 0 0 0 -6-8c-7.4-9-13-18.4-18.8-31.6-14-31.7-23.8-65.7-38.2-133a605 605 0 0 0 -9.6-40.7c-2-3.7-3.6-3.5-8.4.8-8.3 7.5-12.3 19.3-24.5 72.9-12 52.5-19.3 79.2-27 98.5a238 238 0 0 1 -23.5 44.2 88 88 0 0 0 -7 10.6c0 .5 1.3.7 3 .4q5.7-.7 23.5 10.7c24.7 16 41.3 19.8 64.1 14.6m-259.3-31.6a167 167 0 0 0 78.5-29.8c8.6-6.5 21.7-19.7 27.9-28.1 16.9-23.1 31.1-60.8 38.8-102.4 10.7-58.6 4.3-110-18-143.5-14.8-22.4-42.4-37.4-87-47.6-13.4-3-19.2-3.7-35.4-4.6a340 340 0 0 0 -77.6 4q-72 14.5-94.2 44.4c-5.8 7.9-9 15-11.6 26.2-2 8.1-2.2 11.9-2.1 38 0 30.5.7 38.6 6 71a743 743 0 0 0 19.6 85.4 180 180 0 0 0 26.6 53.6c19 22.3 60.8 36 106.2 34.8 6.9-.2 16.9-.8 22.3-1.4m10.7-54.8c-16.3-5.2-31.3-21.6-37.8-41.2a93 93 0 0 1 4.6-72.4 61 61 0 0 1 28.2-29.1c5.3-2.7 6-2.8 20.5-2.9h15l7.2 3.9a69 69 0 0 1 31.5 43.1c3 10.9 3.2 40.4.4 50.5q-11.2 40.6-41.3 48.5c-7.8 2-21.4 1.8-28.3-.4m-83.1-167.2a23 23 0 0 1 -10.5-12.6c-1.5-4-1.6-5.3-.5-9.2 4.4-16.5 40.8-46.2 71.1-58a135 135 0 0 1 56.4-7.3c17 2 24.6 7 26.8 17.3a19.4 19.4 0 0 1 -11.7 23c-2.5 1-10 2.3-20 3.3-33 3.3-43 7.2-69.8 27.4-5.7 4.3-13 9.6-16.4 12-9.2 6.2-18.6 7.7-25.4 4m578.1 189.6a124 124 0 0 0 66-38.3c21.3-22.4 34-52 41.4-96.8 7.5-44.6 8.7-107.7 2.5-137.8-2.7-13.6-5-20-11.9-34.2-12.2-25-26.2-36-53.5-41.6-21.2-4.4-42.4-3.1-72.5 4.5a223 223 0 0 0 -49.7 18.7c-24.6 12.1-38.6 22.9-51 39.2-8.6 11.5-16.4 27-19.2 38.2a169 169 0 0 0 -4.8 53.5c1.5 62 17 121.5 41 157.8a79 79 0 0 0 36 31.7c15.2 7 24.7 8.6 48.2 8a124 124 0 0 0 27.5-2.9m-121.2-85.5a22 22 0 0 1 -14.2-19.1c0-6.5 3.5-12.4 12.4-21 21.2-20.9 40.4-30.6 64-32.5 32.2-2.6 68.2 22.2 68 46.8 0 3.7-3.5 10-7.4 13.5-3.4 3-4.2 3.2-10.9 3.2-6 0-8.6-.6-15.7-3.6-27.5-11.6-36.1-11.1-66.5 4-17.5 8.7-23.8 10.5-29.7 8.7m115.2-140.4c-3-1.3-11.3-5.1-18.3-8.5-22-10.7-27-11.7-43.8-8.5-13.3 2.5-20.5 2.3-26.3-.6a28 28 0 0 1 -8-6.3c-2.6-3.2-3.1-4.9-3.4-10.7-.5-9.2 0-10.7 5-15.9 7-7 17.4-11 35.5-13.3 12-1.6 29.4.1 39 3.8 16 6 34.7 18.8 42 28.6 3.7 5.1 3.8 5.4 3.8 13.9 0 7.9-.2 8.8-2.9 12.3a20 20 0 0 1 -14.1 7.6c-1.6 0-5.5-1.1-8.5-2.4"/></mask><mask id="b" maskUnits="userSpaceOnUse"><path d="m1610.5 1112.3h367.3v614.4h-367.3z" fill="#fff"/><path d="m1005.4 1803.6c-23.8-7.7-39.4-30.6-45-66a94 94 0 0 1 18.6-69.6c3-3.4 5-6.3 4.9-6.5-.2-.2-32.1-10.3-70.9-22.4l-117.5-37c-34-11-47.2-14.8-47.7-13.9-.4.7-.8 3-.8 5.2 0 8-3 23.6-6 31.3q-7 18.2-17.4 13.8c-5.4-2.2-6.6-5.2-8.7-20.4a77 77 0 0 0 -8-30 43 43 0 0 1 -3.9-11.8c0-3.3-2.1-6.4-4.4-6.4-.7 0-3 1.3-5 3-2 1.5-5 3.1-6.4 3.4l-13.7 2.6c-16.3 3.2-24.6 7-32.6 15-7.6 7.6-10 12.2-17 32.9-7.1 20.9-14 30.5-26.9 37.2-3.8 2-6 2.4-13 2.3-9.5 0-15.7-2-24.4-7.9-13.7-9.1-25.5-40-25.6-66.7 0-18.8 6.3-40.4 15.3-52.3 5.3-7 13-14.5 19-18.6 3.1-2.2 5.7-4.2 5.7-4.4s-1.8-3.1-4-6.3a86 86 0 0 1 -14-40.8c-3.4-28.5 10.3-75 31.2-105.6a165 165 0 0 1 47.1-43.8c.5-.5-4.9-3.8-12-7.4-40-20.6-62.2-47.3-81.4-98-18-47.4-41.4-158.1-80-379.1-45.9-264.5-52.4-295.4-70.9-338.8-8.3-19.7-10.5-27.7-9.5-36 2.4-22 21.3-44.3 45.5-54.2 5.8-2.3 7.3-2.5 18.5-2.2 11.8.3 12.2.4 17.9 3.8 11.8 7.2 21 18.9 29.4 37.6a711 711 0 0 1 29.4 94c2.6 11 3.5 13.3 4.8 12.9 4.3-1.7 23.1-5.6 35.5-7.4 18.1-2.6 34.4-4 113-10.1 90.2-7 84.3-6.6 162-11 38.5-2.2 95-5.6 125.5-7.5 70.2-4.4 82.6-5 131-7.5 38-1.9 50.7-2.8 52.2-3.6a65 65 0 0 0 -4.7-13.2 1179 1179 0 0 0 -20.3-45.7c-4.1-9-4.6-10.7-4.6-17 .1-7.8 2.3-16.3 6.1-24a90 90 0 0 1 35.2-34.3c7.1-3.5 8-3.7 19.2-4s12-.2 17.5 2.5a70 70 0 0 1 22.4 20.3c13 19 33.8 75 41.6 111.7.5 2.8.6 2.8 23.4 4.8 36.2 3.1 53.4 6 91 15.5 58.8 14.7 283.8 87.6 363 117.5 55.8 21.1 79.9 35.9 89.5 55 2.9 5.8 3 6.6 3.3 21.5.4 17.5 0 19.7-5.8 29.3l-4.1 6.8 1.7 4.5c1.5 4 1.6 7.1 1 27.2a2416 2416 0 0 1 -9.2 140.2 5538 5538 0 0 1 -44 308c-10 52.4-19.4 74.6-41.8 97.9a180 180 0 0 1 -62.6 41.6c-14.5 5.7-50.9 13.8-92.5 20.9a6259 6259 0 0 1 -167.9 24.2c-1.8.6-1.9 1.4-1.3 12.6.4 6.5 1.2 12.8 1.7 13.8q1 2 9.8 4.6l61.2 18.6c147 44.8 163.1 50.3 173.5 59.9a85 85 0 0 1 17.5 26.9 63 63 0 0 1 -3.5 42.7c-1.4 3-2.1 6-1.7 6.7s3.3 3.6 6.6 6.5l8.6 8.4a69 69 0 0 1 12.6 36c1.5 17.4-8.4 53-16.3 58.3a10 10 0 0 1 -13.3-1.1c-2.6-2.6-3.1-4.2-4-11.5-2.7-21-4-27.4-7.4-34.4-4.9-10.1-7.1-12-15.4-12.4a103 103 0 0 0 -35.4 6 35 35 0 0 0 -15.8 10.7c-7 7-8.3 9.1-18.3 28.7-6 11.6-12.3 23-14.3 25.3a35 35 0 0 1 -30.3 12.8 53 53 0 0 1 -36-19.4c-9.2-12.2-16.7-32-19.1-50.4-.7-5.2-1.6-9.7-2-10.1s-14.5 1.5-31.5 4.2c-136.4 22.2-164 26.3-207.5 31a775 775 0 0 0 -30.2 3.6c-2.3.7-2.2 1.2.3 10.3a64 64 0 0 1 1.7 23.6 66 66 0 0 1 -4.3 27.3c-2 6.2-5 13-6.7 15.3-5.3 7.3-12.5 8.4-18.5 2.7-3-2.7-4-6.6-5.3-20.3q-2.8-27.9-12.1-34.6c-6.4-4.5-33.3-3.5-46.6 1.8-14.7 5.9-22.2 14.3-31.8 35.3-13.8 30.5-19.5 38.4-32.3 44.7a29 29 0 0 1 -16.6 4c-5.4.2-10.7-.3-13.2-1m196.6-220.1c21.9-2 53.6-6 122.5-15.5l70.3-9.6a68 68 0 0 0 13.2-2.5c0-.4-3-1.8-6.7-3.2a7280 7280 0 0 0 -128.3-41.8q-1-.1-1.1 9.6a64 64 0 0 1 -7.3 31.4c-3.4 6.8-5 8.9-7.9 10.5-3.5 1.8-3.8 1.9-7.2.3-2-1-4.2-3-5-4.5s-3-10-5-18.6c-4-18.1-7-24.3-13.6-29.4l-4.5-3.5-8.4.6c-33.3 2.5-44.7 11.3-56.9 43.6a98 98 0 0 1 -14.1 27.8 47 47 0 0 0 -4.1 5.6c0 2 38.7 1.4 64-.9m-115-3c0-.4-2.5-4.9-5.6-10.1a98 98 0 0 1 -14.4-53c0-12.9 1.6-22 6-33.3a69 69 0 0 1 27.2-33.8c3.2-2 5.8-4 5.8-4.4s-2.2-4.3-5-8.5c-5.5-8.3-6.7-12.5-5-16.8 1.4-3.7.9-4.1-3-2-3.8 1.9-6.6 1.6-28-2.7l-14.4-2.8-2.9 3.4c-1.6 2-4.3 3.9-6.5 4.5a665 665 0 0 1 -38.2 4.5c-59.7 6-80.2 9.8-92.6 17a74 74 0 0 0 -19.3 19.5c-5.9 9-8 17-9.4 36.3-1 15-1 17 .3 17.7a16885 16885 0 0 0 197 62.9c7.4 2.2 8 2.3 8 1.5m-314.6-96.2c.3-1 1.7-8.5 3-16.7 3.9-22.5 7-32.6 15.8-50a94 94 0 0 1 20.2-28.4l9.1-9.4-5.5.6c-80.6 8.8-108.9 15-123.5 27.3a56 56 0 0 0 -14 19.5c-2 5.5-5.5 27-4.6 28 .6.7 96.4 30.6 98.3 30.8q.8-.1 1.2-1.8m281.3-124.5a255 255 0 0 1 -18.6-57.2c-3.1-15-1-13.2-18.6-16.5-6-1.1-24-5.5-40-9.6-59.3-15.5-95.9-26-235.5-67.7-113.1-33.7-114.4-34-114.8-31.7-.6 3.8 7 34.2 10.8 43.5 9.3 22.3 31.9 47.1 48.6 53.3 19 7.2 110.6 30.3 176.4 44.6a22684 22684 0 0 1 186.5 41.8q6 1.4 5.2-.6m198.4-19.5c29.4-1 51.9-2.8 93.5-7.5l57.5-6.6c40.5-4.5 67.7-8.1 110.5-14.5 76.4-11.4 108-17.9 127.2-26.2a104 104 0 0 0 38.4-26.2 79 79 0 0 0 23.4-35.5c12.4-30.9 27.6-120 43-252.5a1072 1072 0 0 0 7-190.9q-.9-1.1-19 1.4c-38.6 5.2-252 23.2-379.5 32-47.1 3.2-121.1 7.5-206.5 12-37.4 2-68.4 4-68.9 4.5-1.2 1.2 3.9 88.1 10 169 9.7 130.6 19.6 214.7 30 256.2 7 27.8 17.7 53 27.4 64.6a57 57 0 0 0 34.4 20.1c8.7 1.2 37.3 1.2 71.6 0m-230.5-117.2-5-33.2a372 372 0 0 0 -5.2-30.6c-.4-.4-4.4-1.6-8.8-2.8a1729 1729 0 0 1 -54-16.4c-2.3-.4-2.4-1.4.6 20.2 1 8 2.5 21.9 3.3 30.9 1 11.3 1.7 16.6 2.7 17.1.7.5 6.3 2.2 12.3 3.8l31.1 8.5c11 3 20.8 5.5 21.8 5.6 1.5 0 1.7-.5 1.2-3.2m-136.5-36.3c0-1-1.1-10.1-2.5-20.3a772 772 0 0 1 -3.6-32.5 77 77 0 0 0 -2.2-15.3c-.6-.8-2.9-2.3-5.1-3.4-4.6-2.4-111.8-38-112.4-37.3-.2.2 1.9 13.8 4.7 30.3s5.4 33.8 5.7 38.5l.7 8.4 36 10.8c47.7 14.2 76 22.4 77.4 22.5q1.2-.2 1.3-1.8m-185.1-70c-4-24-6.9-43.5-7.7-53.3l-.7-8.4-45-14.8a895 895 0 0 0 -45.4-14.3c-.2.3 1 8 2.7 17.3a776 776 0 0 1 9.2 55.7c0 4.8.8 6.4 4.4 8.2 3.7 2 80.2 26.1 83.2 26.2l2 .1zm303.7-26.5c-2.4-24.6-9.8-79.4-10.9-80.4-.6-.7-7.3-3-14.7-5.3l-31.3-10c-13.2-4.5-18-5.7-18.3-4.7-.3.7 1.1 14.5 3.1 30.7s4 35 4.3 41.9l.7 12.5 33 11.2c18.1 6.1 33.4 11.2 33.9 11.2s.5-3.1.2-7.1m-136-40c-.9-3.7-7.4-53-9-68-.8-7.7-2-14.5-2.7-15.4-2.2-2.6-6-4.2-44.7-17.9l-57.2-20.3c-10.7-3.9-20-7.1-20.7-7.1q-1.4 0-.8 2.3c2 8.6 10.2 62.3 11.5 75 1 10.7 2 12 11.7 15.8 7.1 2.7 110.5 37.8 111.7 37.8.4 0 .6-1 .3-2.2m-192.7-80.4c-5.4-31.9-9.9-62-9.9-66 0-8.3 2.3-7.1-63.5-30.7-25-8.9-29-10.1-29.3-8.6-.2 1 2 14 4.7 29.1 2.7 15 5.9 34 7 41.9 3 19.8 2.6 18.7 7.4 21.1a1843 1843 0 0 0 84.6 29.9c1.4 0 1.3-1.9-1.2-16.7m310.8-33.5-4.6-45.8c-2.2-21.7-4.3-44.3-4.7-50.2a38 38 0 0 0 -1.3-10.8c-5.3 0-44-8.7-62.3-14a25 25 0 0 0 -7.5-1.4 522 522 0 0 0 4.2 34.2 1110 1110 0 0 1 8 65.6l.2 4.8 33.4 11.8 34.4 12c.5 0 .6-2.8.3-6.3m-138.3-45-7.4-62a722 722 0 0 1 -2.6-28l-.7-10.6-24.6-8.7-64.8-23c-22.1-8-40.7-14.5-41.3-14.5a1 1 0 0 0 -1 1c0 2.3 3.4 23.5 8.5 53 3 17.3 5.9 35.2 6.4 39.8s1.5 9 2.2 9.9 4.1 2.9 7.4 4.4a2778 2778 0 0 0 116.7 42c1.3 0 1.6-.7 1.2-3.3m-197-70.5c-6.2-35.7-14.4-89.3-14.4-95 0-2.4-.7-5-1.8-6.2-1.1-1.5-15.5-7.2-45.1-18.1a879 879 0 0 0 -44-15.5c-.2.3 2.3 16.6 5.7 36.2s7 42.6 8.3 50.8c1.2 8.3 2.7 16 3.4 17a36 36 0 0 0 12.2 6.3 2727 2727 0 0 0 75 27.2q1.1 0 .8-2.8m421.8-95 6.8-.6v-3.3c0-4.6-16.6-116.4-17.5-117.2-.4-.4-178.7 10.8-181.2 11.4q-2.1.6-2.3 1.1l4 22.2c6 33.3 7 38.8 7.8 49.8a41 41 0 0 0 2.2 11.8c1.5 1.7 26.8 10 44.5 14.5 25.5 6.4 65.5 10.3 111.5 10.8 9.6.1 20.5-.1 24.3-.5m99-3.2c.3-.3-.3-7.8-1.3-16.6s-4-36.5-6.5-61.5-4.7-45.6-4.8-45.7c-.5-.6-33.1 2-33.8 2.5a779 779 0 0 0 7.2 47.2c4.3 25.6 8.7 53.1 9.6 61.2l1.8 14.8 13.5-.6c7.5-.4 13.9-1 14.2-1.3m145.3-5.1c42.8-1.9 45.6-2.1 47.7-4.2 1-1 1.8-2.8 1.8-4 0-4.2 4-57 5.5-73.2.9-8.8 1.3-16.1 1.1-16.3-.7-.8-18.2-5-43.6-10.7a523 523 0 0 0 -61-10.6c-3.1 0-3.2.1-2.6 3.3 1.8 10.1 9.6 84 11.2 105.5.8 11.8 1.4 12.4 10.2 11.7 3.7-.3 17-1 29.7-1.5m132.1-9.5c8.2-.8 36-3.3 61.9-5.5s47.5-4.2 48.1-4.4 1.5-3.4 1.9-7c.4-3.7 1-8.1 1.6-9.9.7-2.6.6-3.4-.8-4.4-3.8-2.8-117.3-39.3-123.3-39.6l-3.5-.2-.6 8a954 954 0 0 0 -2.6 62.8c.8 2-.8 2 17.3.2m-623.2-32.2-5-28.6a544 544 0 0 0 -4.9-26.7c-.3-.4-3-.6-6.3-.4l-58.7 4c-29.1 1.8-55.9 3.7-59.4 4-6 .6-6.2.8-4 2 1.3.6 25.4 9.3 53.4 19.2l66.5 23.5c18.4 6.6 19.1 6.7 18.4 3"/></mask><g transform="matrix(.65399386 0 0 .65399386 361.14843 352.29453)"><g mask="url(#b)"><path d="m1833.6 1724.4c5 1.2 10.8 1.5 21.4 1.2 13.1-.3 15.7-.7 26.9-4a216 216 0 0 0 20.2-7 126 126 0 0 0 46.4-34.9 117 117 0 0 0 20.4-41c1.7-6 3.8-14.8 4.6-19.5a322 322 0 0 0 3.1-59.2c-.3-10.8-1.3-25.4-2.1-32.5a605 605 0 0 0 -3.5-25.1 520 520 0 0 0 -17.7-68.7c-3.7-11.3-5-15-4.5-18.4.2-1.7.8-3.2 1.7-5.6a91 91 0 0 0 6.5-37.8 83 83 0 0 0 -2-22.5 100 100 0 0 0 -6-16.2 103 103 0 0 0 -10.2-15.8 118 118 0 0 0 -13-13.4 148 148 0 0 0 -53-27.4c-4.7-1.4-9-3.2-9.7-4s-1.8-5.3-2.6-10.2a391 391 0 0 0 -5.6-24.4c-2.2-8.5-5.9-20.2-8.2-26s-6.4-15-9.2-20.5-8-14.6-11.5-20.3a198 198 0 0 0 -30.9-37.2 354 354 0 0 0 -23-20.4c-6.8-5.5-24.4 77.6-20.6 81.6s9 10.5 11.7 14.3a162 162 0 0 1 17.9 34.4c1.6 4.2 3.8 11.2 4.9 15.5a33 33 0 0 1 1.4 9.8c-.3 1-2.2 2.2-4.7 2.8l-13.4 4c-5 1.6-12 4.3-15.4 6s-9.4 5.1-13.3 7.7-11.2 8.8-16.2 13.7a96 96 0 0 0 -13.2 16.2 86 86 0 0 0 -11.3 31.9c-.7 4.4-1.5 9.1-2 10.5-.6 1.6-3.6 4.1-8 6.7-3.8 2.3-13 8.6-20.6 14a185 185 0 0 0 -26.9 22.7 118 118 0 0 0 -17.8 21.1c-2.7 4.4-6.1 11.2-7.7 15-1.5 3.9-3.3 10-4 13.5a111 111 0 0 0 0 35c.6 3.6 2.7 10.2 4.6 14.8 1.8 4.5 5.8 12 8.8 16.5s9.5 12 14.4 16.7c4.8 4.7 9.2 9.2 9.7 10.1.5 1.1-.2 5.6-2 12.5-2.3 9-2.8 13-2.9 22.9a84 84 0 0 0 6.1 33.4 90 90 0 0 0 19.4 28.5c3.4 3 10 8 14.6 10.8 8 4.9 9 5.9 15 14.8a129 129 0 0 0 27.1 29.8c3.5 2.7 10 6.7 14.1 9a119 119 0 0 0 16.7 6.8 79 79 0 0 0 23 3.2c8.2.3 18 0 23.5-.7 9.2-1.1 9.8-1 15.6 1.3 3.3 1.4 9.1 3.2 13 4m77.5-81.5a99 99 0 0 1 13.2-15.3c.2.4-1.9 8.6-3.3 14.4l-1.4 5.7c-.3 1.8-2.8 7.8-5.5 13.5s-8.1 14.5-12 19.6-7.7 10.5-8.3 11.8c-1 2-.8 2.8.5 4 1.2 1.3 2.7 1.5 6 1 2.5-.3 12-.6 17.7-2.6s11.6-5.3 15.4-9c3.8-3.5 9-9.6 11.8-13.5a137 137 0 0 0 15.2-29.4 159 159 0 0 0 4.6-16 398 398 0 0 0 3.5-19.5 310 310 0 0 0 1.6-58.1 567 567 0 0 0 -3.2-29 512 512 0 0 0 -13-62.5c-2.3-8-6.1-20.1-8.6-27s-6.4-16.5-8.8-21.5a147 147 0 0 0 -23.1-34.5 145 145 0 0 0 -33-25 142 142 0 0 0 -40.9-14.6 140 140 0 0 0 -27.5-1.9c-14.2 0-19.6.4-29 2.3a229 229 0 0 0 -21.7 5.7 282 282 0 0 0 -46.8 21 407 407 0 0 0 -27 15.9 244 244 0 0 0 -40.3 31.4c-4.8 4.8-12.7 24-12.7 24s-1.5 7.8-1.5 12.2q0 7.7 2.1 14a67 67 0 0 0 4.5 10.6 43 43 0 0 0 17.1 15.5 40 40 0 0 0 24.2 1.4 62 62 0 0 0 24.8-13.7c3.4-3 8.9-8.7 12.2-12.8 3.2-4 6.3-7.6 6.8-7.7s1 6.2.9 15.8c-.1 15.2-.3 16.3-2.1 17-.8.3-2.5.7-4.2 1h.6q5.3 0 9.8 2.1a27 27 0 0 1 7.5 5.7 55 55 0 0 1 11.8 34.9c0 4.2-.5 5.7-2.2 7.3a243 243 0 0 1 -14.3 10.2 196 196 0 0 0 -23.3 19.1c-6.2 6-11.4 10.7-11.7 10.5-.2-.3 3.5-15.5 4.8-18.6s4.5-10 7-15.2c4-7.9 4.7-10.4 4.7-15 0-3.2-.8-7.3-1.9-9.6s-4-6-6.7-8.2c-3-2.5-2.2-3.7-4-4.4q-1.3-.4-2.4.1a42 42 0 0 0 -15.3 14.3c-2.3 3-5.1 9.8-5.1 9.8s-4.7 11.8-5.8 16.2c-1.5 5.8-2 11.5-2 21-.2 9.4.3 15.5 1.6 21a68 68 0 0 0 29.7 42 94 94 0 0 0 14.9 6.5c7.8 2.5 9.8 2.7 25 2.7 14.8 0 17.6-.3 27-2.8 7.3-1.9 18-5 26.8-8.8 5.7-2.4 15-7 20.2-10.9 10.2-7.5 16.8-17.1 20.4-21.5 3.7-4.4 7.2-8.2 7.8-8.4q1-.3.6 1.7c-.3 1.2-8 22.4-8 22.4s-2 6.9-4 11-6 10.6-8.8 14.6a130 130 0 0 1 -28.3 28l-9.8 6.5a7 7 0 0 0 -2.5 3.4c-.3 1 .5 3.4 1.8 5.3 1.3 2 4.7 4.8 7.5 6.3a57 57 0 0 0 29.6 5.2 105 105 0 0 0 32.8-8.3 145 145 0 0 0 27.6-16.8c4-3 10.2-7.9 13.8-11s11-7.4 14.6-12.5m-132.1-363a47 47 0 0 0 -14 6.1 34 34 0 0 0 -8.5 8.6c-1.7 2.6-2.5 5-2.5 8.1 0 3.7.5 5 3 7.2 1.6 1.6 5.5 3.6 8.7 4.5 4.5 1.4 10.8 1.8 27.3 2.2 11.8.2 27.4 1 34.7 2a240 240 0 0 1 23.2 4 182 182 0 0 1 19.3 6 198 198 0 0 1 37.3 19.8 421 421 0 0 1 18.5 12.7c4.1 3 10.9 8.4 15 11.8s8 7.1 8.4 8.2c.6 1.2 1.7-5.5 1.7-10.9a71 71 0 0 0 -7.6-32.3c-2-4-5.7-10.1-8-13.4-2.4-3.3-7.2-8.8-10.7-12.1a115 115 0 0 0 -30.3-20.1c-5-2.4-13-5.7-18-7.4a193 193 0 0 0 -59.5-10 158 158 0 0 0 -38 5" fill-rule="evenodd"/></g><g mask="url(#a)"><path d="m1075.6 1849c-6.8 0-9.7-.4-11.2-1.5-1.9-1.5-1.8-1.6.6-3.2 1.4-.9 5.9-5 10-9.3 6-6 8.6-9.6 12.3-17a115 115 0 0 0 6.7-17.5 104 104 0 0 0 2.7-22.4c.3-8.3.1-18.8-.5-24.5s-2.3-14-3.7-19a36 36 0 0 1 -2-10.6c.3-1 2.9-2.8 5.7-4a84 84 0 0 1 32.7-5.5c10.5 0 12.1.2 16.6 2.6 4.2 2.1 5.5 3.5 8.3 9 2 3.8 4 10 5 15.4q1.7 9.1 1.7 23.5c0 8-.6 17.9-1.3 22s-2.8 11-4.7 15.3a72 72 0 0 1 -15.7 24.6c-3 3.1-8.2 7.1-11.5 8.9a139 139 0 0 1 -34.2 11.6c-4.6.9-12.5 1.6-17.5 1.6m-29.6-7.6c-2.5.3-6.5 0-9-.7a68 68 0 0 1 -9.6-4c-2.8-1.4-7.7-5-11-7.9a84 84 0 0 1 -16.8-21.6c-1.5-3.1-1.7-4.5-.9-5.3 1-1 2.7-.8 7 .5a44 44 0 0 0 34.2-4.8 46 46 0 0 0 8-7.1 83 83 0 0 0 9-14.9c2.7-5.5 7.2-15.4 10-21.8a197 197 0 0 1 8.2-16.3 17 17 0 0 1 4.5-5.2c.8-.3 2.2 0 3 .9.8.7 2.5 6.8 3.9 13.3s2.7 15.8 3 20.5c.5 6 .2 11.5-1 18.5a104 104 0 0 1 -9.7 30.8 73 73 0 0 1 -8.9 12 35 35 0 0 1 -12.6 9.4 49 49 0 0 1 -11.3 3.7m-37-47a33 33 0 0 0 11.3 1.1 33 33 0 0 0 10.8-3c2.8-1.5 7-4.7 9.5-7.2 2.6-2.6 6.2-8.3 8.9-13.6a540 540 0 0 0 9.3-21 151 151 0 0 1 9.7-18.7c2.6-4 7-9 9.8-11.1a77 77 0 0 1 29.7-13.4 98 98 0 0 1 22.5-1.3c12.6.3 14.5.6 19 2.9 2.7 1.4 6.4 4.4 8 6.6a59 59 0 0 1 6.5 13.9 68 68 0 0 1 4 23.1c.3 7.8 1 13.7 1.7 14.4.6.6 1.8 1 2.6.6.8-.3 2.9-4 4.6-8.2a99 99 0 0 0 7.2-33.6c0-4.1-.4-10.2-1.1-13.5-.7-3.2-2.3-8.3-3.7-11.2-1.8-3.8-3.4-5.7-5.7-6.7-1.7-.7-11-2.3-20.6-3.5s-23.2-3.2-30.1-4.6-18.3-4-25.3-5.9a983 983 0 0 1 -55.8-17.1c-7.5-2.5-16.1-4.8-19-5q-5.4-.6-10.6.9a81 81 0 0 0 -24.9 14.1 54 54 0 0 0 -6.7 9c-2 3.2-4.6 9.3-6 13.5s-3.3 11.7-4.2 16.6a67 67 0 0 0 -1 17.5c.3 4.7 1.7 13 3.1 18.5s4.5 14 6.9 19 6.3 11.3 8.8 14a53 53 0 0 0 10 8.2 49 49 0 0 0 10.8 4.8m570.5-18.8c-7 .5-9.4.3-11-.9-1.7-1.3-1.7-1.5 1.6-4.3 1.9-1.5 6.2-5.7 9.6-9.2a71 71 0 0 0 17.2-29.8c1.7-5.1 3.6-13.5 4.2-19s.8-14 .4-19.4a114 114 0 0 0 -5.8-28.3c-1.8-5.9-2-6.9-.7-8.1.8-.8 4.2-2.1 7.5-3s9.3-2.3 13.3-3.1 9.4-1.5 12-1.5 6.3.5 8.3 1 4.7 2.2 6.1 3.7a35 35 0 0 1 4.6 7 80 80 0 0 1 7.3 21.8 84 84 0 0 1 .6 18 125 125 0 0 1 -6.6 33.5 84 84 0 0 1 -6 12 47 47 0 0 1 -9.7 11.3 86 86 0 0 1 -14 8.8c-4.8 2.3-12.6 5-19 6.4-6 1.4-15 2.8-19.9 3.1m-32-5.6-4.1-.4a18 18 0 0 1 -6-1.5 49 49 0 0 1 -19-12.4 63 63 0 0 1 -10.7-13.5 32 32 0 0 1 -2.5-5.8q-.2-1 0-1.5c.5-.9 2.6-.7 9.8-.3q5.8.5 9 .3a24 24 0 0 0 6.8-1.4q3.4-1.2 6.7-3.5 2.3-1.7 4.7-3.9a65 65 0 0 0 9.8-12c2.2-3.6 5.8-11.1 8-16.6 2.4-5.5 5.6-12.7 7.2-16a80 80 0 0 1 5.5-9.3 40 40 0 0 1 8.1-8.5c2.4-1.4 3-1.6 4.1-.7h.2c1 .6 2.7 3.8 3.8 7.3l1 3.3c1 4.3 2.6 11.4 3.2 15.8a82 82 0 0 1 .6 17 110 110 0 0 1 -2.6 17 109 109 0 0 1 -6.8 17.6 50 50 0 0 1 -11.1 15 67 67 0 0 1 -13 10.4l-3.8 1.7a21 21 0 0 1 -8.8 1.9m-35.4-44.5c3.3.9 7.4 1.3 10.4 1 2.8-.4 7.3-1.9 10-3.4a34 34 0 0 0 8.7-7.7c2.1-2.7 6.8-11.4 10.4-19.4s8.5-17.8 10.7-21.9a61 61 0 0 1 38.7-28.6c7-2 12.9-2.8 22-3.2 8.1-.3 14-.1 16.8.6a23 23 0 0 1 7.6 4.1c1.8 1.7 5 6 6.9 9.8 2 3.7 4.5 10.1 5.7 14.2 1.3 4.4 2.5 12.5 3 19.8.4 6.7 1 12.6 1.4 13s1.6-.3 2.6-1.6c1-1.2 3-5.7 4.4-10s3.5-12.4 4.6-18c1.1-5.7 2-13 2-16.1a70 70 0 0 0 -6-27.5 38 38 0 0 0 -10.5-13.1c-4-3.7-8.3-6.9-9.4-7.2-1.3-.3-4 .7-7.3 3-3 1.9-9.6 5-14.8 7a362 362 0 0 1 -41 12.1c-5.8 1.4-17 3.5-25 4.6-8 1.2-23.7 3.8-35 5.7s-28.3 4.5-37.9 5.8-17.9 2.9-18.4 3.4-1.2 3.4-1.4 6.3c-.3 3.2.3 9 1.5 14.3 1.1 5 3.5 13 5.2 17.7a79 79 0 0 0 14.2 24.4c1.7 1.8 5.6 4.6 8.8 6.3 3.1 1.7 8.1 3.7 11.1 4.6m-869.1-21c-5.8.2-11.3.2-12.3-.1q-1.6-.6-1.4-1.8c.3-.7 3.7-4.3 7.5-8 4-3.8 8.7-9.6 10.7-12.9s4.7-8.6 6-11.6 3.3-10.1 4.6-15.6c1.8-7.7 2.3-13 2.4-23.1 0-9-.6-16-1.8-22-1-5-2.7-11-3.9-13.4-1-2.5-2.2-6-2.5-7.7-.4-2.5 0-3.4 2-4.7a48 48 0 0 1 8-3.6c3-1 9.4-2.5 14.3-3.1a46 46 0 0 1 26.6 3.5c1.8 1.2 4.5 4.4 6 7.1 1.6 3 3.7 10.2 5.3 18a79 79 0 0 1 2.2 25.5c-.3 7.8-1.3 15.5-2.6 20.5a81 81 0 0 1 -14.1 29 64 64 0 0 1 -8.9 8.5 86 86 0 0 1 -29.3 13 126 126 0 0 1 -18.8 2.5m-32-5.6a41 41 0 0 1 -18-5.4 54 54 0 0 1 -18.5-18.4 21 21 0 0 1 -3.3-7.8c.3-1.4 1.9-1.6 11.3-1.7 9.6 0 11.6-.4 15.8-2.5a45 45 0 0 0 19.6-23.4c2.7-5.6 5.8-14.2 7-19.2s3.8-11.9 5.7-15.5 5-8.2 7-10.3c2-2 4.4-3.7 5.3-3.5q1.6.5 3.8 6.8c1.2 3.6 3 10.7 3.9 15.8 1.2 7 1.5 12.5 1.1 21.5a108 108 0 0 1 -2.6 20.2c-1.1 4.4-4.1 12.1-6.6 17.1q-4.4 9.2-9.9 14.6a48 48 0 0 1 -11.7 8.7 26 26 0 0 1 -9.8 3m552-14.5c4.7.7 11.7 1.1 15.5.9s15.8-1.3 26.5-2.4 26.7-2.9 35.5-4a1762 1762 0 0 0 88-12.8 8422 8422 0 0 1 99-16c9.9-1.7 30.4-4.9 45.5-7.1s40.1-6.1 55.5-8.6 38.1-6.5 50.5-9c12.4-2.3 28.4-6.2 35.5-8.5a176 176 0 0 0 19.8-7.6 52 52 0 0 0 11.2-7.8c2.4-2.4 5.6-6.7 7-9.5a61 61 0 0 0 5.1-27.3q-.4-7-3.4-13a87 87 0 0 0 -8.6-13.4 28 28 0 0 0 -11.9-10.2c-3.4-1.6-11.8-5-18.7-7.4s-20.8-7-31-10.2-23.7-7.4-30-9.5-18.7-6-27.5-8.5a3403 3403 0 0 1 -73.5-22.4l-33-10.2c-9.6-2.9-19.3-5.4-21.6-5.7q-4-.3-14 2.7c-5.4 1.7-13.7 4-18.4 5a171 171 0 0 1 -43.2 3.7 74 74 0 0 1 -14.5-2.2c-2.7-1-6-2.5-7.6-3.6-1.5-1-3.4-3.3-4.3-5s-2-7-2.4-11.6c-.6-7-1.2-8.9-3-10.3a24 24 0 0 0 -7.6-3c-4.5-1-9.1-1-26.2.5l-39.7 2.9a399 399 0 0 1 -70-.6 96 96 0 0 1 -27-5.3c-5.5-2-11.2-3.8-12.7-4.1-2.2-.4-2.8-.1-2.8 1.1 0 1 1.7 4.3 3.9 7.4a86 86 0 0 0 7.7 9.6c2.2 2.3 7.2 5.5 11.9 7.7a313 313 0 0 0 19.5 7.9 3942 3942 0 0 0 106.5 36.7 18621 18621 0 0 0 158 52 623 623 0 0 0 22.6 6.9c5.3 1.4 7.4 1.2 34.5-2.1 15.9-2 39.3-5.1 51.9-7 15-2.2 27.7-4.7 36.3-7.1 10.1-2.9 13.7-3.6 15-2.7 1 .5 1.7 1.8 1.7 2.9s-1.4 2.6-3 3.6-9.5 3.3-17.4 5.2-22.3 4.7-32 6c-9.7 1.5-32.2 4.4-50.1 6.6s-44.9 5.8-60 8-39.6 5.5-54.5 7.5-39.1 5.3-54 7.5a2738 2738 0 0 1 -97.8 12.5c-7.2.8-24 1.8-37.2 2.1-19.7.5-28.4.2-49-1.5-13.7-1.2-29-2.8-34-3.6s-20.8-5.2-35.3-10l-143.4-46.1c-12.8-4.2-28-8.7-33.8-10a88 88 0 0 0 -52.5 3.9 101 101 0 0 0 -11.5 7.3c-3.6 2.6-9 6.3-12 8.1s-6.6 3.3-8 3.3c-1.6 0-3.7-1.1-5.3-2.7a31 31 0 0 1 -4.7-7.5 56 56 0 0 1 -3-13c-.6-4.6-1.1-12.2-1.2-17a41 41 0 0 0 -1-9.3c-.3-.3-11.5-4-25-8l-48.3-15a1404 1404 0 0 0 -60.7-17.6 15 15 0 0 1 -5.5-2.6q-1.4-1.6-1.2-2.7.4-1 1.9-2c1.1-.7 5-.2 13.3 1.8 9 2.2 11.1 2.7 12.4 2q.6-.5 1-1.2c1.3-1.5 2-4.8 2.4-11.1a65 65 0 0 1 3-16c1.3-3.8 4-9.4 6.1-12.5s6.6-8.3 10.1-11.6a65 65 0 0 1 13.7-9.5c4-2 13.3-5.2 20.8-7 7.5-2 21-4.6 30-6 9-1.3 24.6-3.4 34.5-4.5l36.3-4.1c10-1 19.4-2.3 20.7-2.6s2.5-1.2 2.5-2c0-.7-1.7-1.8-3.7-2.3a875 875 0 0 0 -43.3-10l-27.5-6c-7.7-1.6-19.6-4.3-26.5-6a1032 1032 0 0 0 -30.5-6.6 1129 1129 0 0 1 -52.8-11.8c-4.4-1-5.2-.9-11 2a156 156 0 0 0 -49.4 41.3 163 163 0 0 0 -12.8 21.5c-3.5 7.2-8 17.7-10 23.5s-4.5 14.1-5.5 18.5-2.4 13.3-3 19.8c-1 8.9-1 14-.1 20.5a145 145 0 0 0 2.6 14.6c.9 3.2 3.4 9.4 5.7 13.8 2.2 4.3 6 9.9 8.3 12.3q4.3 4.4 14.1 9a670 670 0 0 0 53.4 22.3l31.8 11.7 38 13.5a1237 1237 0 0 0 37.7 12.6 3973 3973 0 0 1 74.5 23.8l38 12 52.5 16.4 53.5 16.8c10.2 3.1 20 6 21.7 6.2q3.2.3 10-2.3c5.8-2.4 7.7-2.7 13.8-2.2 4 .3 13.6 2.4 22.5 5 8.5 2.5 23.3 7.1 33 10.2a435 435 0 0 0 62 15zm-584.5-27.8c2.8.7 6.6 1 8.5.7a29 29 0 0 0 7-2.4c2-1 5.3-3.6 7.3-5.8a78 78 0 0 0 6-7.8c1.5-2 3.5-6.3 4.7-9.3s3.2-9.7 4.5-14.8 4.1-12.5 6.2-16.3a53 53 0 0 1 21-22.5 101 101 0 0 1 15.1-6.5c4.8-1.5 13-3.2 18-3.8 5.2-.6 9.7-1.3 10-1.6q.5-.8-1.2-2a70 70 0 0 0 -10.5-4.5l-23.6-8.7a977 977 0 0 1 -39-16 154 154 0 0 0 -27.7-10.5 23 23 0 0 0 -10 3.4 47 47 0 0 0 -13 11.3 80 80 0 0 0 -9.8 14 91 91 0 0 0 -5 14.3c-1 4.4-2.4 11.3-3 15.4a65 65 0 0 0 0 16.5 104 104 0 0 0 9.9 36 70 70 0 0 0 6.4 11 33 33 0 0 0 7.9 5.8 52 52 0 0 0 10.3 4.1m147.1-30.8q.5 4.2 1.7 4c.7-.2 2.2-2.6 3.5-5.2a88 88 0 0 0 6.6-32.5c0-7.4-.1-8.5-2.2-10.1a59 59 0 0 0 -11.8-5c-7-2.4-9.9-3-10.7-2.1q-1.2 1 .8 4.4a102 102 0 0 1 8.4 19.2 78 78 0 0 1 2.7 15c.3 4.4.7 10 1 12.3m429.9-36c-9.3 0-18-.3-19.2-.8-1.3-.5-2.3-1.8-2.3-2.8s1.5-3.6 3.4-5.8 4.9-6.4 6.8-9.4c2-3 5.5-11 7.8-17.5s5.8-15.3 7.7-19.4c2.1-4.5 5.5-9.4 8.4-12.3 3.5-3.5 5.6-4.8 7.2-4.6 1.2.2 2.8 1.5 3.5 3a84 84 0 0 1 3.3 10.5c1 4.3 2.2 11.8 2.6 16.8.4 6.4 0 11.6-1.1 17.9a114 114 0 0 1 -4.3 15.3c-1.4 3.5-3.5 6.9-4.7 7.6s-8.2 1.3-19.1 1.4m37-2.3c-1.1.1-2.8 0-3.8-.2q-2-.4-1.4-3.1c.2-1.5 1.5-6.8 2.8-11.7a70 70 0 0 0 2.4-20.5c0-6.3-.6-14.4-1.3-18s-2.5-9.8-3.9-13.9c-2-6.1-2.3-7.5-1.1-8.7a37 37 0 0 1 9.8-3.4c4.7-1.1 12.2-2.3 16.7-2.7 6.4-.5 9.2-.2 12.6 1 2.4 1 5.3 2.8 6.4 4s3.5 5 5.2 8.4a66 66 0 0 1 6.1 28.8 108 108 0 0 1 -5.4 31c-.8 2-2.6 4-3.8 4.4a202 202 0 0 1 -20.8 2.5zm-85.7-6c2 .8 5.9 1.4 8.5 1.5q4.8 0 9.5-2.4c2.6-1.3 6.1-4 7.9-5.8a64 64 0 0 0 12.9-23.2c1.4-4.4 3.8-11 5.1-14.5 1.4-3.5 4-9 6-12.1a55 55 0 0 1 21.3-20.2 96 96 0 0 1 33.6-7.5c10.4-.5 11.4-.4 16 1.8a41 41 0 0 1 9 6.5c2.2 2.2 5.3 6.6 6.8 9.8s3.6 9.9 4.6 15 2.4 12.4 3 16.4 1.6 7.2 2.2 7 2.5-4 4.4-8.3a81 81 0 0 0 4.4-16c.9-5.8 1-10 .2-15.5s-1.7-8-3.1-9.1c-1.1-1-5.3-2.9-9.3-4.3l-38.8-13.2c-17.3-5.8-44.8-15.6-61-21.7-20.5-7.7-30.7-11-33.6-11a22 22 0 0 0 -9.2 2.8c-2.9 1.6-7 4.4-9.2 6.3a66 66 0 0 0 -19.8 35.7 92 92 0 0 0 -1.3 28c.6 5 1.8 11.7 2.6 15a107 107 0 0 0 15 30.3c2.1 2.4 4.8 5 6.1 5.9 1.3.8 4.1 2.1 6.2 2.9m-321-48.7c1.7 3.8 2.3 4.3 4.7 4 1.6-.2 6.6-3 11.2-6.2 4.7-3.3 10.7-7.2 13.5-8.7s8.7-3.8 13.1-5c6.8-2 10.4-2.4 24.2-2.4 11.8 0 16.6-.4 17.5-1.3s1.5-6.5 1.9-18a67 67 0 0 1 9.5-37.9c2-3.2 6.7-9 10.7-13.1s9.9-8.8 13.2-10.7a92 92 0 0 1 34-10.3 884 884 0 0 1 69-8.2c13.2-1.1 25.7-2.3 27.8-2.7 2-.3 3.7-1 3.7-1.4s-2.6-1.7-5.7-2.9-10-3.2-15.3-4.5c-5.2-1.4-17.4-4-27-6s-25.4-5.6-35-8-25.4-6.3-35-8.4l-35-8.1c-9.6-2.3-19-4.2-21-4.3q-3.5 0-16 6.3c-6.9 3.4-16.5 9-21.4 12.3a85 85 0 0 0 -14.6 12.8 112 112 0 0 0 -17.9 29.7c-2.2 5-5 12.1-6 15.9a217 217 0 0 0 -7 39.8c-.6 6-1.1 15.3-1 20.5 0 5.2.4 12.4 1 16s1.9 8.4 3 10.8m536.5-74.5h11a217 217 0 0 0 44-7.4 80 80 0 0 0 12.2-4.5c2-1.3 2.3-2.3 2.3-8.2 0-3.7-.5-9.6-1-13a22 22 0 0 0 -2-7.6c-.6-.6-3.8-1-7.3-.8a362 362 0 0 0 -21.7 2.2c-8.5 1.1-24.7 2.9-36 4-18.3 1.8-20.7 2.2-22.2 4.1-1.3 1.6-1.6 3.2-1.2 6.3l1.6 10.6c.8 4.7 1.8 7.2 3.8 9.1q2.7 2.7 8 3.8zm-169-32.9c7.7.7 20.5 1.4 28.5 1.5 8 0 24.2-.6 36-1.4s36.4-3 54.5-5l53-5.4a3265 3265 0 0 0 97-11.2 1501 1501 0 0 0 50.6-7c9.6-1.5 26-4 36.5-5.3a1406 1406 0 0 0 118-20.2c9.3-2 22-5.4 28.4-7.6s14.8-5.7 18.8-7.9c4-2.1 12.7-7.5 19.3-12a171 171 0 0 0 20.8-16.8c4.8-4.7 11-11.8 13.9-15.6 2.9-3.9 7.5-11.5 10.4-17a80 80 0 0 0 5.8-13.5c.4-2 1.6-5.3 2.8-7.6s3.4-10.6 5-18.5a1529 1529 0 0 0 11.3-59.9c1-6 2.8-17.4 3.9-25.2a3181 3181 0 0 1 11-73.8l6.5-45 8.4-62.5a2197 2197 0 0 0 7.6-63 2349 2349 0 0 0 9.4-138.6c.6-11.8.8-22.7.5-24.2a8 8 0 0 0 -2-3.9c-1.2-1-3-.3-9.3 3.4-4.4 2.5-10.7 5.7-14.2 7.2s-9.7 3.5-13.9 4.6a24 24 0 0 0 -8.3 3.2c-.4.6-.4 11.1 0 23.2s.6 32.3.5 45-.7 32.7-1.3 44.5-1.8 28.7-2.6 37.5-2.8 26.3-4.4 39l-6 51.5c-1.8 15.7-5 39.7-7.1 53.5l-7 45a765 765 0 0 1 -21 103 195 195 0 0 1 -9 21.6 66 66 0 0 1 -18.3 24.4 170 170 0 0 1 -18.6 16.3 172 172 0 0 1 -65 24.6 1446 1446 0 0 1 -80 13.5l-41 6a1588 1588 0 0 1 -81 10.1c-11.3 1.1-32.6 3.6-47.5 5.5a1505 1505 0 0 1 -95.5 8.8c-10.7.6-31 1.2-45 1.2-14.7 0-29-.5-33.7-1.2a81 81 0 0 1 -15-4 72 72 0 0 1 -11.8-5.8 83 83 0 0 1 -21.8-22.8 179 179 0 0 1 -9.7-19.6 267 267 0 0 1 -14-43.1c-1.6-6.3-4.5-21.2-6.4-33s-4.9-33-6.5-47l-5.6-47.5a2571 2571 0 0 1 -8-88.5 2825 2825 0 0 0 -4-54.5l-2.5-31.5a2376 2376 0 0 1 -3.6-56.5c-.8-17-2-38.3-2.5-47.2s-1.3-16.9-1.6-17.8c-.4-.8-1.4-2-2.3-2.3-.9-.5-7.4-.5-14.6-.1a641 641 0 0 1 -51 .2 33 33 0 0 0 -11.3.7c-2.5 1-2.5 1.1-1.9 11.3.4 5.6 1.8 21.2 3.2 34.7l5.5 52 5.5 51c1.3 13 4.5 39.7 7 59.4 2.4 19.7 5.6 46.5 7 59.5a2437 2437 0 0 0 13 98.6 3704 3704 0 0 0 17.1 104.5c1.4 7.4 4.5 19.6 7 27a251 251 0 0 0 9.3 23.6 237 237 0 0 0 13.4 23c4.7 7 11.5 16.1 15.1 20.1a105 105 0 0 0 30.3 23c4.1 1.9 10.2 4 13.6 4.9 3.4.8 12.5 2 20.2 2.8m-80.5-18a154 154 0 0 0 14.8 2.5q2 0 2.2-1.3c0-.7-2-3.2-4.5-5.5-2.7-2.4-25.5-30.1-25.5-30.1l-56.6-12.7-9-2c-25.8-12.9-30.1-45.6-31.2-48.8a137 137 0 0 1 -6.3-26.5c-.7-4.7-1.8-10-2.5-11.7-1-2.7-2.1-3.4-6.6-4.7l-35.3-9.8c-6-1.6-7.1-1.6-8.3-.4s-1 3.6 1.3 17.3c1.5 8.7 4.4 24.2 6.5 34.5 2.6 13 4.8 20.9 7 25.8a92 92 0 0 0 4.4 8l-12-2.7a4123 4123 0 0 0 -97.3-20.7c-26.4-12.4-28.8-36.8-30-40.1s-4.7-30.7-5.5-34-2-9.8-2.7-14.5-1.8-10-2.5-11.7c-1-2.7-2.1-3.4-6.6-4.7l-35.3-9.8c-6-1.6-7.1-1.6-8.3-.4s-1 3.6 1.3 17.3c1.5 8.7 4.4 24.2 6.5 34.5 2.4 12 6.2 36.8 8.5 44.3-34.3-9-67-18-67.5-19.5-1.2-3.1-25.6-22.2-26.1-24.3s-9.4-14.1-11.6-17.7-5.3-9.9-7-14-4.3-12.2-5.7-18-3.7-16.4-5-23.5a50 50 0 0 0 -4-14c-.9-.7-5.3-2.2-9.8-3.4a119 119 0 0 1 -14-4.8 35 35 0 0 1 -9.1-6.1 45 45 0 0 1 -6.3-9.2c-2.2-4.3-2.8-7-2.9-12 0-3.6.6-8.3 1.3-10.5.8-2.3 2.9-6.1 4.7-8.7q3.4-4.6 8.6-7.2c4-2 6.8-2.6 11.6-2.6q6.5 0 6.9-1.3c.3-.8-.9-9.4-2.5-19.3l-7-39.4a105 105 0 0 0 -5.9-24c-1.4-1.8-5.5-3.6-17.4-7.5-9.6-3-16.9-6-19.2-7.8-2-1.6-4.8-4.6-6-6.7a48 48 0 0 1 -4.2-8.9 32 32 0 0 1 -1.2-11.8q.4-6.8 2.8-11.6c1.3-2.7 4-6.3 6-8.1s5.8-4.1 8.4-5.1c4.3-1.6 5.4-1.7 11.3-.5q6.4 1.3 7.4.3c.7-.7-.6-10.2-3.6-27.4l-8.5-47.3c-2.8-15.4-4.3-21.3-5.7-22.6-1-1-6.5-3.2-12.3-5s-13.4-4.5-16.8-6c-3.5-1.7-8-4.3-10.2-6-2-1.6-5-5.4-6.6-8.5-2.6-4.8-2.9-6.5-2.9-14.2 0-7.2.5-9.7 2.4-13.7a47 47 0 0 1 4.9-7.8c1.4-1.6 4.7-4 7.5-5.5 4.6-2.3 5.9-2.5 12.2-2l10.9 1.3q2.5.5 3.1 0c.7-.5.5-2 .1-5.7-.3-3.5-2-14-3.6-23.4s-5.3-30.7-8-47.5c-3.8-22.3-5.6-31-6.8-32-1-1-6-3.4-11.2-5.5a87 87 0 0 1 -27.4-15.7 55 55 0 0 1 -8.2-9.4 62 62 0 0 1 -5.5-11.8c-1.9-5.6-2-8.1-1.7-18.8.4-10 1-13.8 3.2-20.3a73 73 0 0 1 16-27 76 76 0 0 1 11-9c3.3-2.2 4.7-3.2 5.2-4.5q.6-1.3.1-4.5a192 192 0 0 0 -4-19.3 965 965 0 0 0 -18.9-63.2c-2.8-8.5-7.8-20.7-11-27.1a84 84 0 0 0 -11.5-17.8q-5.5-6.2-11.7-9.3a23 23 0 0 0 -12.6-3.2c-5 0-8.2.6-13.5 2.7a72 72 0 0 0 -22 12.8 83 83 0 0 0 -9.6 11.3c-3 4.3-5.8 9.7-7 13.9-1.7 5.3-2 8.5-1.6 14 .4 6 1.3 9 6 18.7 3 6.3 7.1 16 9.1 21.3s5.2 15.3 7.1 22a793 793 0 0 1 13.9 58.2 1909 1909 0 0 1 12.5 66 5657 5657 0 0 0 15.7 87.3l11 62.7a9009 9009 0 0 0 19 109 5242 5242 0 0 0 41 209c2.5 11 6.3 27.4 8.5 36.3a462 462 0 0 0 17.5 58 199 199 0 0 0 22.6 43.7 207 207 0 0 0 12 15c3.3 3.6 10.7 10 16.4 14.3s14.5 10.1 19.6 13c5.1 2.7 12.7 6.1 16.8 7.5s15 4.4 24 6.6 25.5 5.8 36.5 8l37 8a4216 4216 0 0 0 79.2 17.7l37.8 8c9.3 1.9 23.9 5 32.2 7l44.5 10.4a10503 10503 0 0 0 142.8 32.5m-64.5-132.9c9.4 2.5 18.4 4.3 20 4.2 2.7-.2 3-.5 3.3-4.2.1-2.2-1-10.9-2.6-19.3s-3.5-16-4.3-16.7-8.4-3.2-16.9-5.5c-8.5-2.4-18.2-5-21.5-5.7s-15.7-4.1-27.5-7.4a6325 6325 0 0 1 -148.5-42.7l-60-18.3c-18.2-5.6-40.9-12.6-50.5-15.4l-39-12-39-12.2c-9.6-3-20.2-6-23.5-6.5-5.3-1-6.5-.9-10.7 1-3.9 1.7-5.2 3-7.4 7.4a22 22 0 0 0 -2.8 11.3c0 4.6.6 7.2 2.5 10.5 1.3 2.4 4.3 5.9 6.7 7.7a55 55 0 0 0 15.5 6.7c6.2 2 22 6.6 35.2 10.4l61.2 18 165.4 49.1a3074 3074 0 0 0 104.5 29.1zm-76-70.6c3.3 1 7.1 1.9 8.5 1.8 2.4-.2 2.5-.4 2.4-7.2a498 498 0 0 0 -3.8-34.5c-2.2-16-4.3-28.4-5.2-29.7-1-1.6-5.2-3.5-15.6-6.8l-21.6-6.8c-6.4-1.9-7.4-2-8.7-.6s-1.2 3.3.4 17.4l4.1 33c1.2 9.3 2.8 18.4 3.5 20.2 1.2 2.8 2.4 3.5 8.2 5.2l14.3 4zm-189.5-56a85 85 0 0 0 15 3.8c2.3-.2 2.5-.6 2.3-4.2-.1-2.2-1.5-11.4-3.2-20.5s-4.4-24.8-6-34.9c-2.1-12.6-3.6-19-4.8-20.3-1-1-9.4-4.3-20.2-7.8l-20.6-6.4a5 5 0 0 0 -3.5.4c-1.2.7-.6 6 4.4 36.7 3.2 19.7 6.3 37.6 7 39.8 1 3.9 1.4 4.1 9.1 6.8 4.4 1.5 13.6 4.6 20.5 6.7m228.8-11.5a662 662 0 0 0 36.8 11.5q2-.1 2.8-1.4c.3-.9.1-5-.4-9.3l-2-17.1c-.7-6.9-1.4-10-2.7-11.1-1-1-21.6-8-45.8-15.9a12116 12116 0 0 1 -144.7-47.8l-65.3-22.4a13926 13926 0 0 0 -115.2-40.3c-13.1-4.6-34.1-11.8-46.8-16-17-5.8-23.8-7.6-26.2-7.3a18 18 0 0 0 -6.3 2.7 25 25 0 0 0 -8.6 15.6c-.4 2.7 0 7 .6 9.4q1.3 4.5 5.4 8.6c2.4 2.4 6.3 5 9.6 6.1a46182 46182 0 0 1 228.5 75.3 35992 35992 0 0 0 180.3 59.4m-62.3-68a257 257 0 0 0 15.2 4.5q1.3-.1 2.2-1.7 1-1.8-.9-14.8l-3.5-26.6-3.5-29.5c-1.5-12-2.4-16.1-3.7-17.4-1-1-11.8-5-24-9-17.6-5.8-22.5-7-23.5-6.1s-.7 5.4 1.5 21l5.2 39.7c1.5 11 3.2 22.3 3.8 25 1.2 5 1.2 5 9.2 7.7zm-198-67.4c11 3.8 20.7 6.8 21.5 6.7q1.4-.4 1.8-3.4c.2-1.8-1.1-12-2.8-22.7l-7-42.7c-3-18-4.2-23.5-5.6-24.8-1-1-7.5-3.8-14.4-6.3l-20.7-7.4c-6.6-2.3-8.5-2.6-9.5-1.6s-.8 3.8 1 14l4.7 28.7 5.4 32.8a83 83 0 0 0 4.3 18.3c.8.8 10.4 4.6 21.4 8.4m258.5-9.6c11.8 4 22 7 22.7 6.9q1.1-.5 1.6-1.7c.3-.7-.6-10.2-2-21.2-1.8-15.1-2.8-20.3-4-21.6-1-1-35.3-13-76.3-26.7s-93-31.5-115.5-39.6l-66-24a13545 13545 0 0 0 -125.7-46l-49.3-18a131 131 0 0 0 -19.6-6.2 15 15 0 0 0 -8.3 1.2c-2 1-4.8 3.2-6.1 5s-3.1 6-4 9.4a26 26 0 0 0 1.8 18.6 27 27 0 0 0 4.4 4.6 46 46 0 0 0 8.9 5 591 591 0 0 0 30.9 11.4 4760 4760 0 0 1 85 30.5l83.5 30.5a6106 6106 0 0 0 104.5 37.3 3927 3927 0 0 0 70 23.5zm-88.8-82.5c11.7 3.8 22.3 7 23.4 7 1.2 0 2.5-.6 2.8-1.5s-.8-12-2.4-24.7l-7-50.8a331 331 0 0 0 -4.9-29.7c-.7-1.4-6.5-3.8-20.8-8.7-10.9-3.7-21-7-22.4-7.2q-2.6-.5-3.2 1.1c-.4 1 .7 12.4 2.3 25.4l6 50.2c1.5 14.6 3.3 27.7 3.9 29.2 1 2.5 3 3.3 22.3 9.7m-187.7-67.3a84 84 0 0 0 15.5 5c.8 0 1.6-1.3 1.8-2.7s-1-10-2.7-19a4244 4244 0 0 1 -11.5-67.6c-1.3-8.9-3-17-3.5-18.1q-1.2-2.1-13.8-7c-7-2.7-17.2-6.4-22.6-8.3-8.4-3-9.9-3.2-10.7-1.9-.6.8-.8 3.7-.4 6.5.3 2.8 2.2 14 4 25 1.9 11 5.3 31.5 7.5 45.5s4.7 26.9 5.4 28.6c1 2.6 2.5 3.5 9.1 6zm296.5-20.8c5.2.4 17.4.9 27 1s36-1 58.5-2.4l73-4a12589 12589 0 0 0 200.5-11.6 27646 27646 0 0 0 177.3-13.5 32915 32915 0 0 0 197.7-17.6c9-1.1 22.6-3.1 30-4.5s17.1-3.5 21.5-4.9a109 109 0 0 0 30.2-14.8 27 27 0 0 0 9.9-12.2c3.4-6.9 3.7-8.4 3.7-15.3 0-4.2-.3-10.1-.7-13a37 37 0 0 0 -11.5-21.5c-2.5-2.3-8.2-6.5-12.6-9.3a238 238 0 0 0 -46-22.2 2083 2083 0 0 0 -80-29.1 10318 10318 0 0 0 -207.2-67.6l-50.3-15.5a847 847 0 0 0 -71.5-18.6c-8.2-1.9-20.4-4-27-4.9a951 951 0 0 0 -68.6-5.5 660 660 0 0 0 -49.2 0l-56 2.5-70 3.5c-22 1.1-53 2.9-68.7 4a11356 11356 0 0 1 -154 9.5l-72.5 4c-14.8.9-37.7 2.5-50.7 3.6l-48 3.9-52.8 4c-15.7 1-34.8 2.7-42.5 3.6s-17.8 2.2-22.5 3-13.5 2.6-19.5 4c-6.9 1.4-14 3.9-19 6.3a63 63 0 0 0 -22.8 19.6c-2 2.8-4.4 7.3-5.5 10a78 78 0 0 0 -4.5 26.2c0 3.7.7 9.3 1.6 12.4a44 44 0 0 0 17.4 22.4c3.7 2.5 12.4 6.7 19.3 9.4a3945 3945 0 0 0 77 29 26134 26134 0 0 0 197.2 71.1 4679 4679 0 0 0 120.3 40.4c8.2 2.4 20.2 5.5 26.6 6.9a356 356 0 0 0 44.9 7.5m111.5-85.9a1118 1118 0 0 1 -81 .3l-27.5-1.8c-11.3-.9-26.6-2.5-34-3.6-7.4-1-19.4-3.5-26.6-5.4s-25.2-7.4-40-12.3a4698 4698 0 0 1 -97.4-33.6l-65.5-23.3-24-8.3c-6-2.1-16.8-6-24-8.8-7.2-2.7-21.5-7.7-32-11a940 940 0 0 1 -38.8-13.6l-48.2-18.7a50 50 0 0 1 -10.5-5.8c-3-2.5-3.3-3.2-2.4-4.8a5 5 0 0 1 2.8-2.1c.9-.2 4 .8 6.9 2.2a361 361 0 0 0 18.7 7.7l28 10.4 26.8 10c6.7 2.5 14.6 5.1 17.5 5.9 4.4 1.1 9.4 1 33.7-.5l73-4.9a19389 19389 0 0 1 167.3-10.5l72.7-4.4 57-3.6c14.5-.8 43.8-2.5 65-3.9l62-3.7c13-.7 34.3-1.3 47.5-1.3 21.3 0 26.8.4 48.5 3.3 13.5 1.8 32 4.8 41 6.8s33 7.6 53 12.6 43.5 11 52 13.3a1801 1801 0 0 1 97.2 30l57.5 19 47 14.9a100 100 0 0 0 18 4.5c4.8.5 9.6 0 19.4-1 10.7-1 23.5-2.5 28.5-3.3a48 48 0 0 0 21.7-7.7c2.2-1.6 3.1-1.8 4.3-.9.8.7 1.4 2.5 1.4 4.1 0 1.7-.9 3.6-2 4.6-1 .9-4.3 2.6-7.2 3.9s-8.7 3-12.8 3.8a365 365 0 0 1 -29 3.6c-11.8 1-31.4 3-43.5 4.4a3609 3609 0 0 1 -113.5 10.6l-51 4.5a3448 3448 0 0 1 -139.5 10.5c-12.1.5-35.7 1.5-52.5 2a6723 6723 0 0 0 -102.3 4c-15 .6-43.4 1.5-63.2 2m-8.7-8.6c1 .3 9.5.3 19 0 10-.2 18.1-.8 19.4-1.5 1.9-1 2-1.7 1.5-7.8a1600 1600 0 0 0 -9.7-63.1 1865 1865 0 0 1 -8.6-50.8 5 5 0 0 0 -2.7-3.3q-2.3-.9-19 0a110 110 0 0 0 -18.8 2.2c-1.8 1-2 1.7-1.5 4.7l6.1 40.5 8 54c1.4 9.4 3 18.9 3.5 20.9s1.8 3.9 2.8 4.2m90.4-4.2c1.8 1.8 3 1.9 17.1 1.4l22.7-1c4.1-.3 14.4-.7 22.9-1a194 194 0 0 0 17.7-1 6 6 0 0 0 3.3-2.4c.5-1 .2-9-1-21.2l-4-39.5c-1-11-3-29-4.4-40-2.1-17-2.8-20.2-4.5-21.7-1.2-1-4.8-1.9-9.3-2.3-4-.4-16.4-.4-27.7-.1l-31.5 1.1c-6 .4-12 1-13.4 1.6-2.3 1-2.4 1.2-1.8 8.7l2.7 24.7c1 9.3 2.7 24.9 3.5 34.5a1181 1181 0 0 0 5.1 49c.5 5.2 1.3 7.9 2.6 9.2m194.4-8.5c1.3 1 3.5 1.3 7.4.9l25.6-2.2q6.7-.7 8.5-2.5c1.5-1.5 1.9-3.4 1.9-9.6 0-4.3.5-15.2 1-24.3.6-9 1.4-22 2-28.6.5-6.7.6-13 .3-14.2s-1.7-2.5-3.1-3a359 359 0 0 0 -33.9-9c-4-.4-4.2-.3-4.8 3-.3 1.8-1 9-1.6 16l-4.5 60.7c-.7 10.5-.6 11.5 1.2 12.8m-519.6-22.2c10.2 3.5 19.4 6.3 20.5 6.2 1.6-.2 2-1 2.3-4.2.1-2.2-1-11.2-2.7-20l-6.1-34a331 331 0 0 0 -4-21.1c-.6-1.8-2-3.4-3-3.7a230 230 0 0 0 -36.9 2.3c-2.1 1-2.3 1.5-1.8 5.3l4.7 25.7c2.1 11.8 4.2 24 4.6 27.2s1.4 6.7 2.3 7.8c1 1.2 8.8 4.5 20.2 8.5m714.8 5.9c1 .2 3.7.3 6.2 0a443 443 0 0 0 32-3.5c2-.9 2.1-1.2 1-2.3a128 128 0 0 0 -17-6.6c-8.5-3-17-5.5-18.7-5.8-2.7-.3-3.4 0-4.1 2a45 45 0 0 0 -1.7 14c.3.9 1.4 1.9 2.3 2.2m-415.5-191.1c.7.4 9 .6 18.7.2l44-1.1c18.3-.4 26.7-.9 27.2-1.7.4-.6.4-2.5 0-4.2-.2-1.6-2.2-8.8-4.3-16a842 842 0 0 0 -18.5-55.2 178 178 0 0 0 -18-35 58 58 0 0 0 -8.7-9.6 53 53 0 0 0 -7.3-5c-1.8-1-5.3-2.1-7.8-2.7-3.5-.8-6.3-.7-11.6.4-3.9.8-9.4 2.8-12.2 4.3a102 102 0 0 0 -25.4 23.8 59 59 0 0 0 -5.5 11 60 60 0 0 0 -2.6 12.4q-.3 2.9-.1 4.8c.2 3.1 1.8 6.2 6.9 16.2 4 8 9.4 19.4 12.1 25.5s6.5 15.6 8.4 21a49 49 0 0 0 4.7 10.9" fill-rule="evenodd"/></g><g fill-rule="evenodd"><path d="m1428.3 1135a135 135 0 0 0 36.4-.6 139 139 0 0 0 15.8-4.5 95 95 0 0 0 17-8.8 167 167 0 0 0 32.5-28.6 57 57 0 0 0 9-12.2c.5-2 .5-4.6-.1-6.8a12 12 0 0 0 -3.6-5.5 11 11 0 0 0 -6.8-2q-4.2 0-7.3 2.3a214 214 0 0 0 -13.8 12.5 154 154 0 0 1 -16.6 14.3 93 93 0 0 1 -29.6 11.5c-4 .8-10.7 1.4-14.7 1.4a87 87 0 0 1 -38.8-10.1c-3.4-1.8-8.9-5-12.1-7.3l-10-6.9c-2.2-1.5-5.1-3-6.5-3.4-1.3-.3-3.8 0-5.5.5-1.7.7-4.3 2.5-5.8 4.2a9 9 0 0 0 -2.8 6.3c0 1.7.8 4.6 1.8 6.2s5 5.9 8.8 9.4a172 172 0 0 0 13.3 10.9 108 108 0 0 0 39.4 17.2m-276.8-5c5.5.5 21.7.7 36 .5 14.6-.3 31.5-1.1 38.5-2s17-2.4 22.5-3.5a347 347 0 0 0 41-11.5c5-1.8 13.5-5.3 19-7.7a183 183 0 0 0 18.2-9.6c4.5-2.8 11.4-7.6 15.3-10.7a197 197 0 0 0 14-12.7 166 166 0 0 0 26-34.9 238 238 0 0 0 22.4-56.7c3-10.3 7.9-29.5 11-42.7s7.6-33.4 10-45c2.6-11.6 5.8-24.6 7.2-29s4-11.2 6-15c1.8-3.8 4.7-8.7 6.4-10.8a29 29 0 0 1 15-9.2 9 9 0 0 1 6.7 1.4 20 20 0 0 1 5.7 7c1.8 3.5 4.5 14.5 9.1 37.8a796 796 0 0 0 25 101.1c3.6 10.7 9 25.2 11.8 32.1 3 7 8 16.9 11.2 22.1 4.3 6.9 9 12.7 17.4 21 6.4 6.5 14.5 13.6 18.1 15.9a170 170 0 0 0 15.5 8.5 239 239 0 0 0 64.6 20.1c5.2 1 19.5 1.9 31.9 2.2 14.4.4 26.8.2 34.5-.6a231 231 0 0 0 74-20.7 212 212 0 0 0 15.9-8.8 151 151 0 0 0 50.2-53c3.2-5.6 7.7-14.4 10-19.6s6-15.1 8.2-22a567 567 0 0 0 15.6-62.5c2-9.9 4.9-27.4 6.5-39s4.4-31.8 6-45c1.8-13.2 4.3-29.7 5.6-36.7a73 73 0 0 1 6.4-21 299 299 0 0 1 7.6-14.4c2.6-4.5 3.8-8 4.5-13.5.5-4 1-17 1-28.8a717 717 0 0 0 -1-36 294 294 0 0 0 -2-18.2c-.6-2-2-5.1-3.3-7s-4.7-5-7.7-7.1-10.9-6-17.5-8.7a366 366 0 0 0 -46.5-15 315 315 0 0 0 -48-7.4 583 583 0 0 0 -80.2 0c-9.2.8-23.8 2.3-32.5 3.3-10 1.3-19.2 3-25.3 5l-22 6.6a328 328 0 0 0 -85 37.5 138 138 0 0 0 -21 17.8 104 104 0 0 0 -21.5 28.5 307 307 0 0 1 -13.8 21.8q-1.4 1.9-2.6 2.8c-2.6 2-6.6 2-22.4 2-14.5 0-24.7.5-32.2 1.6-9 1.3-11.8 1.4-15.5.4-3.2-.8-6-2.6-9.5-6.3-2.7-2.9-7.9-9.5-11.4-14.7s-8.8-12.4-11.6-16a167 167 0 0 0 -24.1-24 156 156 0 0 0 -34.3-20c-6-2.7-17-6.9-24.3-9.4s-19.9-6.1-27.9-8a340 340 0 0 0 -67.2-8.8c-17.3-1-26.6-1-45.8 0a729 729 0 0 0 -74.4 7.7 1018 1018 0 0 0 -74.1 15.5 733 733 0 0 0 -75.9 23.7c-9.9 3.5-20.5 7.6-23.5 9.1a23 23 0 0 0 -7.6 6 24 24 0 0 0 -2.8 10.4 38 38 0 0 1 -2 9.8c-.9 1.5-6.7 5.7-14.8 10.6a2538 2538 0 0 0 -78.3 50.2 1902 1902 0 0 0 -81 57.5c-8.8 6.6-23 17.7-31.3 24.6l-24 19.7a197 197 0 0 0 -15.3 14.1 67 67 0 0 0 -9.8 13.5c-1.7 3.4-4.5 11.7-6.1 18.3s-4.3 17-6 23c-1.6 6-4 16.8-5.4 24l-4.7 25.5c-1.2 6.9-2.2 16.8-2.3 22 0 8.4.3 10.1 2.8 15 1.5 3 4.5 7.4 6.8 9.6 2.2 2.3 6.5 5.5 9.6 7 5.2 2.6 6.7 2.9 15.8 2.9 8.3 0 11-.4 14.5-2.1a41 41 0 0 0 17-18.8c1.6-3.4 4-10.5 5.3-15.7s3.6-16.4 5-24.9l4.7-26.5c1-6 3.1-13.3 4.5-16.2 1.4-3 5-7.4 8.2-10.5s10.7-8.5 16.7-12.4a1288 1288 0 0 1 69.5-41.4 2666 2666 0 0 1 114.3-59.4c4.3-2 5.9-2.6 7-2.2q1 .4 2.1 1.6c1.3 1.4 5.1 7.9 8.4 14.5s7.6 17 9.6 23a596 596 0 0 1 19 77.1 569 569 0 0 0 17.6 70c2.8 8.3 7.6 21.1 10.8 28.5s8.5 17.6 11.7 22.8c3.8 6 9.6 13.3 16.4 20.3 6.6 6.9 13.8 13.2 19.5 17 5 3.4 12.4 7.6 16.5 9.5a261 261 0 0 0 42.1 14.3 329 329 0 0 0 48.5 8m66-57.8c-13 2.5-17.8 3-35.5 3.3-11.3.2-23.2 0-26.5-.6l-17.6-2.9a163 163 0 0 1 -40.4-12.7c-3.8-2-10.2-5.7-14-8.3a86 86 0 0 1 -12-10.1 110 110 0 0 1 -17.3-24.9 224 224 0 0 1 -17-43.5 712 712 0 0 1 -14.1-60 747 747 0 0 1 -9.3-63.5c-.7-8-1.3-22.6-1.2-32.5 0-13.7.5-21 2.2-30.8 1.2-7.3 3.4-15.6 5-19.5a78 78 0 0 1 16.2-24 111 111 0 0 1 28-19.7 215 215 0 0 1 39-14.3 406 406 0 0 1 50-9.8c10.2-1.4 21.2-1.9 37-1.9 18.9 0 24.8.4 37 2.4a312 312 0 0 1 48.7 11.6 175 175 0 0 1 38.5 18.4c4 2.7 9.4 6.7 12 9a103 103 0 0 1 21 28.5c2.3 4.5 5.3 11.5 6.8 15.6a189 189 0 0 1 8.5 35.3 303 303 0 0 1 2.1 26.2 226 226 0 0 1 -1 33 359 359 0 0 1 -22.8 95 197 197 0 0 1 -21.1 39.5 194 194 0 0 1 -16.2 18.6 124 124 0 0 1 -18.5 15.6 172 172 0 0 1 -67.5 27m485.5-28.9a212 212 0 0 1 -20.5 2c-6 .3-14 .2-17.7-.3s-10-1.5-14-2.3a114 114 0 0 1 -27.7-10.2 93 93 0 0 1 -24.2-19.6 172 172 0 0 1 -20.9-33.2 317 317 0 0 1 -24.5-79.6c-1.4-8.5-3.2-20.4-4-26.5s-1.9-19-2.5-28.7a186 186 0 0 1 3-53.5c1.2-6 3-13.8 4.2-17.4 1.1-3.6 4.2-10.8 6.8-16a136 136 0 0 1 25.8-34.2 165 165 0 0 1 39-26.2c6.2-3 15.6-7.4 21-9.5a223 223 0 0 1 40.7-12.4 501 501 0 0 1 23.5-4.3c8.4-1.2 14.9-1.6 24-1.1a154 154 0 0 1 22.2 2.6 95 95 0 0 1 33.2 13.2 69 69 0 0 1 20 21.2 165 165 0 0 1 15.5 33.2c1.6 5 3.6 13.3 4.5 18.5s2 13.6 2.6 18.5a719 719 0 0 1 0 72.3 548 548 0 0 1 -6 52.2c-1.2 6.3-3.7 17.7-5.6 25.2-2 7.6-5.3 18.3-7.5 23.9s-6.2 14.5-9 19.8a122 122 0 0 1 -9.8 16.1 214 214 0 0 1 -30.5 30.8 181 181 0 0 1 -28.1 16.2 186 186 0 0 1 -33.5 9.4m-481.4-42.4a45 45 0 0 0 22.6-1.6 63 63 0 0 0 7.8-3.9 53 53 0 0 0 15.5-16.9c2-3.3 4.7-9.6 6.1-14a96 96 0 0 0 3.4-18.5 98 98 0 0 0 -3.6-38c-1.4-4.1-4-10-5.7-13s-5.6-8-8.6-11c-3.1-3.1-8.3-7-11.6-8.6-5.5-2.7-6.9-2.9-17-2.9s-11.4.2-17.5 3.1a43 43 0 0 0 -12.6 9.5 57 57 0 0 0 -10.2 15 75 75 0 0 0 -8.1 36.3 84 84 0 0 0 2 20.6 97 97 0 0 0 6 16.8 54 54 0 0 0 21.7 23.6c2.7 1.4 7.2 3 9.8 3.5m366.5-66.6c2.7 2.6 3.5 2.9 7.8 2.5 3.8-.4 7.2-2 15.2-6.9 5.7-3.5 14.1-7.8 18.8-9.5a100 100 0 0 1 17-4.5 54 54 0 0 1 17.4 0c7.8 1 11 2 20.5 6.6a44 44 0 0 0 15.3 5.5c2.9 0 4.7-.7 6.4-2.5 1.9-1.8 2.5-3.5 2.5-6.6 0-2.3-1-6.2-2.2-8.6a51 51 0 0 0 -8.8-10.7 63 63 0 0 0 -29.6-15.3 59 59 0 0 0 -16.9-1c-5 .4-11.7 1.4-15 2.2-3.3 1-9.2 3.2-13.2 5-4 2-10.6 6.2-14.7 9.5s-10.8 9-14.7 12.7c-4 3.8-7.8 8.2-8.7 10s-1.2 4.1-.8 5.8a16 16 0 0 0 3.7 5.8m-343.5-2.4c1.6.5 4 .7 5.4.4s3.5-1.2 4.7-2a24 24 0 0 0 7.6-16.4c0-2.5-.7-6.7-1.7-9.2a23 23 0 0 0 -5.2-7.7c-2.7-2.3-4.4-3-7.6-3-2.3 0-5.4.8-7.2 2a19 19 0 0 0 -8 16c0 3.5.6 7.2 1.8 9.7 1 2.3 3 5.3 4.6 6.8 1.5 1.4 4 3 5.6 3.4m-111.1-100.3c1.9 1.9 3.5 2.4 7.2 2.4q4.8 0 8.4-2.3c2-1.2 9.5-6.8 16.7-12.5s17.3-12.7 22.5-15.8c5.1-3 13-6.7 17.4-8.4a119 119 0 0 1 37.8-6.5c7.2-.3 14.3-1 15.8-1.7s3.7-2.2 4.7-3.6c1.3-1.5 2-4 2-6.6 0-2.3-.7-5.1-1.5-6.3-.8-1.1-3.3-2.8-5.5-3.7s-8.6-1.9-14.3-2.2a151 151 0 0 0 -38.2 3.2 141 141 0 0 0 -44 22c-3.8 2.8-11.2 8.8-16.3 13.4a115 115 0 0 0 -12.3 12.3 26 26 0 0 0 -3.5 6.4 12 12 0 0 0 0 4.9c.4 1.4 1.8 3.7 3.1 5m566-38.8c6.2 3.6 10.1 5.2 12.6 5.2 2 0 4.2-.6 5.1-1.2s2-2.3 2.7-3.5c.6-1.2 1.1-3.7 1.1-5.5s-.8-4.6-1.9-6.3-4.8-5.6-8.4-8.8-9.9-7.8-13.8-10.2-11-5.8-15.8-7.6a53 53 0 0 0 -21-3.7 89 89 0 0 0 -34.1 4.4q-5.4 1.6-9.2 5.4c-3 3-3.8 4.5-3.8 7.6 0 2.2.9 5.3 1.9 7s3.2 3.6 5 4.3c1.7.8 5.2 1.1 8.3.8 3-.2 10-1.5 15.6-2.7a36 36 0 0 1 19.4-.7 63 63 0 0 1 18.2 6 358 358 0 0 1 18.1 9.5"/><path d="m278 1381a598 598 0 0 0 75-1.5 274 274 0 0 0 71.5-21.2l10.1-5.2q2.3-1.2 3.6-1.4c1.7-.2 3.5.7 8.4 3.2 4.4 2.1 11 5 14.9 6.2 5.9 1.9 9.8 2.3 24.5 2.7 15.1.3 18.6.1 25.7-1.6a127 127 0 0 0 32.8-13.6 152 152 0 0 0 31.3-27.8c3.9-4.6 9.4-12.1 12.3-16.8s7-12.2 9-16.8c2.2-4.5 4.6-8.5 5.5-8.9 1-.3 8.5.2 16.8 1.2 12.5 1.4 20 1.7 42.1 1.2 21-.4 29.5-1 38.5-2.6a472 472 0 0 0 60.3-15.7c8.9-3.1 22.5-8.4 30.2-11.8a697 697 0 0 0 97.7-54.3l11.5-8.6a42 42 0 0 0 14.2-20.5 44 44 0 0 0 2.1-12.2 44 44 0 0 0 -6.4-21.9c-1.3-2-4-5.2-6.2-7a48 48 0 0 0 -9.4-6c-4.6-2.1-7-2.6-14-2.6a34 34 0 0 0 -15.3 2.7 93 93 0 0 0 -15.2 8.2l-16.8 10.9a734 734 0 0 1 -40.2 24 401 401 0 0 1 -52.9 24.2 292 292 0 0 1 -44.4 11.9c-5.1.9-15.3 2-22.7 2.7-10.3 1-16.6 1-27.6 0a221 221 0 0 1 -18.4-2c-2.2-.6-4.4-1.6-4.8-2.3s-1-10.7-1.1-22.3c-.3-15.9-.9-23.9-2.5-32.9-1.2-6.5-4-17.4-6.2-24.2s-6.4-16.3-9.1-21.1a117 117 0 0 0 -21.2-26.9 141 141 0 0 0 -27.2-17.9 92 92 0 0 0 -24.7-7.5c-2.7-.4-5.5-1.3-6.2-2.1s-3.1-6.3-5.3-12.4c-2.2-6-6-15.6-8.4-21.1s-7.4-15.7-11-22.5a978 978 0 0 0 -16.8-29.9 675 675 0 0 1 -15.7-28.5c-3-6-7.3-15.7-9.5-21.4-2.1-5.7-5.4-16.6-7.3-24.3a472 472 0 0 1 -10-58.8c-.9-8-1.8-23.3-2-34l-1.6-46.5c-.5-14.8-1.6-30.4-2.3-34.5s-2.4-10.9-3.6-15-3.6-10.4-5.3-14a51 51 0 0 0 -10.7-14 53 53 0 0 0 -15-11.2c-4.1-2-11.1-4.7-15.5-5.9a69 69 0 0 0 -21-2.2c-10.4 0-14.6.4-21 2.2-4.4 1.2-12.3 4.3-17.5 6.9a53 53 0 0 0 -17.6 12.7c-4.4 4.4-10 11-12.3 14.5-2.3 3.6-6.2 10.6-8.6 15.5a168 168 0 0 0 -13.2 44.8c-1 7.4-1.7 18.7-1.8 28.7 0 9 .5 22.8 1.2 30.5s3.3 27.7 5.8 44.5c3.7 24.2 4.6 32.2 4.2 38.8-.4 6.7-1.1 9.5-4 15.6-2 4.3-4.6 8.2-6.2 9.2-2.5 1.6-3.3 1.6-16.5-.5-7.6-1.2-19.2-2.8-25.7-3.6a716 716 0 0 0 -29.3-2.5c-9.6-.6-22.4-.9-28.5-.6-6 .4-14.6 1.5-19 2.6s-11.4 3.4-15.5 5c-4.1 1.8-10.6 5-14.4 7.3a102 102 0 0 0 -27.2 25.7c-2.4 3.7-6 10.3-8 14.5-2 4.3-5 13-6.6 19.3-3 11.4-3 12.2-3.8 45.1-.6 29.5-1 34.2-2.7 39a76 76 0 0 1 -6.7 12.8c-2.6 4-6 10.1-7.6 13.5a128 128 0 0 0 -9.1 62.1c.6 7.5 2.2 19.3 3.6 26.1a330 330 0 0 0 7.1 27.2c2.6 8.2 5.5 18 6.6 21.8 1.8 6.4 1.9 8 .7 18.2-.7 6.7-1 16.4-.6 24.5.4 10 1.3 16.2 3.5 25a113 113 0 0 0 14.5 34.5 106 106 0 0 0 27.8 26.6c3.5 2 10.5 5 15.4 6.6s16 4.1 24.5 5.5a1138 1138 0 0 0 60 8.1 4136 4136 0 0 0 64 6.5m-202-100.3c1 6 3 14 4.3 17.9a89 89 0 0 0 15 20.3c2.3 1.7 7.6 5.1 11.7 7.5a167 167 0 0 0 39.6 15.5 208 208 0 0 0 49.4 5.6c7.4 0 19.1-.5 26-1.3a232 232 0 0 0 48-11.2 84 84 0 0 0 28-17c3.1-3 6.8-7.3 8.3-9.6a70 70 0 0 0 4.7-10.2c1.5-4.7 2-8.6 2-17.5 0-8.5-.5-13-2-17.8-1-3.6-3.7-9.1-5.8-12.4a54 54 0 0 0 -8.3-9.8c-2.4-2-8.3-5.6-13.1-7.9a217 217 0 0 0 -45.1-7.6 520 520 0 0 1 -68.2-6.1c-6.6-1.1-17-3.2-23-4.5-6-1.4-12.6-3.5-14.5-4.7l-.7-.4c-1.4-.8-1.8-1-1.7-2 .1-1.5 3.4-2.4 3.4-2.4l6.8-.1c2-.1 15.4 0 29.7 0 14.3.2 38.8-.5 54.5-1.3s33.9-2.3 40.5-3.2a169 169 0 0 0 35.7-7.5 83 83 0 0 0 15-6.8c3.5-2.2 8.2-6 10.5-8.3s5.8-7 7.8-10.3 4.5-9 5.6-12.5c1.3-4 2.3-10.7 2.6-17.5a71 71 0 0 0 -5.4-33.9 85 85 0 0 0 -6.5-12.1 74 74 0 0 0 -26.2-16.7 922 922 0 0 0 -66.1-10.7c-9.4-1.2-24.9-2.8-34.5-3.6a652 652 0 0 0 -55.6-1.4c-9.7 0-15.8 0-18.4-1-.2 0-.1-1 0-2v-1.4q0-1.5 4.3-2.8l13.4-3.5c5.1-1.3 14.1-3 20-3.8 6-.9 16.9-2 24.2-2.6 7.4-.5 20-1 27.9-1s25.2 1 38.5 2.1 31.6 2.2 40.7 2.2a79 79 0 0 0 38-6.5 45 45 0 0 0 17.8-17.2 50 50 0 0 0 4.7-27.1 79 79 0 0 0 -3.1-15.4c-1.4-4-4.4-10.3-6.8-14s-7.3-10.4-11-15a93 93 0 0 0 -21.7-18.4c-5.7-3.2-13.6-4.8-18.5-6.2s-14.3-3.7-20.9-5a777 777 0 0 0 -57.5-9c-7.4-.8-20.7-1.8-29.5-2.2a110 110 0 0 0 -59.2 12.1 82 82 0 0 0 -25.2 19.8 101 101 0 0 0 -15.9 28.8c-1.3 3.6-3.3 10.8-4.4 16-1.5 7.6-2 15.8-2.7 41.5-.7 25.8-1.1 33-2.5 36.7a97 97 0 0 1 -6.6 13c-2.7 4.6-6.6 12.3-8.6 17.3s-4.4 12.8-5.4 17.5a149 149 0 0 0 1.6 64.5c1.3 6 4 16.4 6 23s4.7 16.7 6.1 22.4a42 42 0 0 1 1.5 20.3c-.6 5.4-1.1 13.8-1.1 18.7s.9 13.7 2 19.7m208-436.1c4 26.7 4.7 42.5 4.7 42.5s6.3 3.6 10.6 7.7c4 3.8 11.4 9.4 16.3 12.5s15 8.8 22.4 12.8 16.9 9.5 21 12.1c4.1 2.7 9.8 7 12.7 9.4s7.9 8.5 11.1 13.4c3.2 4.8 7.3 12.2 9 16.5a117 117 0 0 1 8.4 37.2c.9 9.2.9 14.9 0 23.5-.6 6.3-2.8 19-4.9 28.4a108 108 0 0 0 -3.8 32.6c0 12 .4 17.4 1.8 23 1 4 3.6 11.7 5.7 17s6.7 14.3 10.2 20a147 147 0 0 0 31.8 35c5 3.9 9 7.5 9 8 0 .7-1.8 1-4.2.7-2.4-.2-9.5-2-15.8-3.9-10-3-13-3.4-22-3.4-9.7 0-11 .2-16.4 3-3.3 1.7-8.1 5-10.7 7.6s-6 7-7.5 10a29 29 0 0 0 -3.2 13.9c-.4 8 0 9.4 4.6 24a225 225 0 0 1 6.7 25.6c1 6 1.5 12.2 1.1 15.9-.3 3.3-1.5 9.4-2.6 13.5s-2.4 9.4-2.7 11.6c-.5 3.8-.3 4.3 3 7 2 1.6 5.1 3.4 7 4a69 69 0 0 0 27-.2 94 94 0 0 0 14-5.3 156 156 0 0 0 32.5-21.3 186 186 0 0 0 32.7-37.7c3.4-5.3 9-14.5 12.2-20.5s9-16.7 11.3-23.8a53 53 0 0 1 3.7-8.7c1-1.4 1.3-1.3 2.2 1.2.6 1.6 1.1 5.6 1 9 0 3.4-1 11.6-2.5 18.2a567 567 0 0 0 -4.4 24.5c-1.1 7.1-2 17.6-2 24.3a46 46 0 0 0 1.5 15.5c.9 2 2.5 4.6 3.6 5.8s3.8 3 6 4 6.2 1.8 8.8 1.8 7-.5 9.6-1.2a48 48 0 0 0 11.6-5.8 100 100 0 0 0 14.6-12.8 161 161 0 0 0 26.6-39c6-11.6 14.5-39.2 15.5-46.6 1-7.8 1.7-20.3 1.7-29.5 0-12-.6-19.4-2.3-30-1.3-7.6-3.6-18-5.2-23s-4.7-12.7-7-17.3a142 142 0 0 0 -8.2-14.5c-2.3-3.4-6.9-9-10.2-12.6a108 108 0 0 0 -25.6-19c-3-1.6-8.7-4-12.6-5.4a79 79 0 0 0 -11.7-3.2c-3.7-.6-4.8-.4-5.2.7-.4.9.5 6 1.9 11.4a192 192 0 0 1 5.2 40.4c.3 7.4.1 19.4-.5 26.6a250 250 0 0 1 -8.3 43.9c-1 3.3-3.7 9.7-5.8 14.3-2.1 4.5-4.4 8.2-5 8.2q-1.2-.1-.5-1.7a350 350 0 0 0 12-59.3c1.2-11 1.5-19.8 1.1-30a270 270 0 0 0 -7.6-51.1 246 246 0 0 0 -14.9-41.9 560 560 0 0 0 -30.1-57 477 477 0 0 1 -15.6-28.5 260 260 0 0 1 -21.3-71.6c-1.1-7.4-2.7-20.4-3.6-28.9s-2-29.4-2.5-46.5c-.5-17-1.4-38.9-2-48.5-.7-10.8-2-21.8-3.4-28.6a108 108 0 0 0 -6-18.8 52 52 0 0 0 -23.5-24.4 91 91 0 0 0 -13.1-5.6c-3-.9-8.9-2-13-2.5-4.8-.6-10.3-.6-15.3 0a84 84 0 0 0 -29.6 9.6 90 90 0 0 0 -23.7 21.9 140 140 0 0 0 -16.3 33.9c-1.6 5-4 13.5-5.1 19a158 158 0 0 0 -2.7 28.5c-.4 10.6-.1 24 .5 31.5.6 7.2 3.4 28.3 6.2 47m92.9-349.2c2.5.9 6.4 1.6 8.6 1.7 2.5 0 4.6-.6 5.4-1.5a5 5 0 0 0 .8-3.7c-.3-1.3-2.5-6-4.9-10.6a29 29 0 0 1 -4.7-15.7c-.3-4.7.1-9.2 1.2-12.6a67 67 0 0 1 5.3-11.9 88 88 0 0 1 27.7-26.9 119 119 0 0 1 14.4-6.8c5.6-2.1 7.9-2.4 14-2 5.6.4 9.1 1.4 14 3.8 3.7 1.8 8.8 5.5 12 8.8 3.2 3 8 9 10.7 13.1 4 6 5.5 7.5 7.5 7.5 2.1 0 2.8-.8 4.4-5.5a47 47 0 0 0 2-15c0-5.5-.6-13-1.6-17.9-1-4.6-3.3-11.9-5.1-16.1-1.9-4.3-6.7-12.9-10.9-19.1a524 524 0 0 1 -13.7-22.4 241 241 0 0 0 -11-17.4l-10-14.5c-2.9-4.4-7.7-12.8-10.6-18.6-3-5.8-7.3-13.3-9.7-16.7s-7.3-9.7-11-14.1-9.5-10.5-12.8-13.5-8.8-7-12.2-8.6c-3.5-1.7-10.1-4-14.8-5.2-6.7-1.7-10.2-2-17-1.6-4.7.3-12.1 1.7-16.5 3s-11.7 4-16.2 5.7a83 83 0 0 0 -12.6 6 87 87 0 0 0 -10.9 9.8 177 177 0 0 0 -12.2 15c-3.2 4.6-7.4 11.8-9.2 16.1-2 4.3-4.4 11.6-5.6 16.2-1.8 7.2-2 10.2-1.5 20.9a121 121 0 0 0 9 41.2c2 4.6 6.6 14.1 10.4 21.3s9.6 17.5 12.8 23 8.8 14 12.5 19l16.5 23.5a159 159 0 0 0 20.6 25.2 92 92 0 0 0 15.6 13.1 93 93 0 0 0 9.3 4m740.5-34.3c2.2.5 5.1.6 6.5.3a10 10 0 0 0 2.9-.8c.2-.2.2-1.7 0-3.2s-2.5-6.5-4.9-10.8a28 28 0 0 1 -4.8-17.3 30 30 0 0 1 1.7-14.8 84 84 0 0 1 19.4-27.8 59 59 0 0 1 31.7-17.6 39 39 0 0 1 22.7 2.3c2.5 1.2 6.9 4.3 9.8 7s7.7 8 10.5 11.8c3.2 4.4 5.9 7 7 7s2.6-1.2 3.4-2.7 1.9-5.2 2.5-8.1a72 72 0 0 0 -.4-26.4 65 65 0 0 0 -6.2-15.8 330 330 0 0 0 -10.3-17.5l-11.2-18c-3-5-9.7-15.5-15-23.5l-15.9-24.5a353 353 0 0 0 -11.3-17 96 96 0 0 0 -22.2-23 85 85 0 0 0 -30.2-13.9 73 73 0 0 0 -29.3-.1c-4 .8-11 3.3-15.8 5.6-4.7 2.2-11 5.6-14 7.5a94 94 0 0 0 -9.8 7.7 35 35 0 0 0 -6 7c-1.3 2.6-1.3 3.1 0 4.4.7.8 3.7 2 6.4 2.7s7.2 2.4 9.7 3.7a57 57 0 0 1 19 17.3 130 130 0 0 1 14.4 34.7 114 114 0 0 1 1 24.5 93 93 0 0 1 -9.4 43 71 71 0 0 1 -8 12.2c-2.6 3-7.3 7-10.6 9.3a27 27 0 0 0 -6.5 5.6c-.3.8.5 3.8 2 6.7a171 171 0 0 0 26.2 35.2c5.2 5.3 13.2 11.8 19.2 15.8a99 99 0 0 0 16 8.7c3.2 1.2 7.6 2.5 9.8 2.9m-612.1-51.6c2 1.7 3.4 1.8 20.1 1.2 9.9-.3 26.1-1 36-1.6l42-2a454 454 0 0 0 30.5-2c3.6-.6 19-1.7 34.3-2.5l71.5-3.5 101.2-5c31.6-1.6 70.8-3.9 87-5s48.4-3.2 71.6-4.4c42-2.3 42-2.3 47.3-5.2a34 34 0 0 0 8.3-6.4 75 75 0 0 0 7-12c2.2-4.6 5.4-13.6 7.1-20 2.7-10 3-13 3-23.8a82 82 0 0 0 -2.7-22.3c-1.4-5.6-4.3-13.9-6.6-18.5a53 53 0 0 0 -22-24.5 28 28 0 0 0 -14.8-3.8c-4.7-.2-17 0-27.1.7l-41 2.6c-12.4.8-32.7 2-45.2 2.5l-116 5.5c-17.8.8-44.7 2-59.8 2.5l-54 2.5-56 3c-16.2.9-50 2.4-75 3.5l-103.8 4.9c-10 .6-13.6 1.1-14.9 2.3-1.4 1.5-1.4 2 1 6 1.3 2.5 4.7 7.9 7.5 12s8 12 11.4 17.8 11.1 17.5 17 26c5.7 8.6 13 19.8 16.2 25s7.4 13 9.2 17.3c2 4.4 4.4 11.9 5.5 16.6q2.2 8.6 4.3 10.5m-64.2-28.6c1.3.6 3.3 1.1 4.5 1.1s3.5-1 5-2.3c2.5-2.2 2.8-3 2.8-8.8 0-5.3-.6-7.6-4.2-15-2.3-4.8-7-13-10.4-18.5s-8.8-14-11.9-19.3a1090 1090 0 0 0 -24.5-38.5c-2.4-3.3-7.6-9.6-11.7-14-4-4.3-10-9.6-13.1-11.6a38 38 0 0 0 -20.8-7.2c-2.8 0-5.8.6-7.3 1.7a12 12 0 0 0 -3.8 4 9 9 0 0 0 -.4 5c.5 2 2.6 3.5 10.1 7.2a41 41 0 0 1 14.3 9.9 159 159 0 0 1 11.9 16.1c3.9 6 10 15.6 13.5 21.4s11.5 18.2 17.8 27.5 14.7 22.2 18.7 28.6a61 61 0 0 0 9.5 12.7m736-39.4c1.8.8 4.5 1.6 5.9 1.6s3.6-1 5-2.5c1.9-2.1 2.3-3.6 2.3-8-.1-4.5-1-7-6.6-17.7a747 747 0 0 0 -43.5-71.6c-2.5-3.5-7-8.3-10.1-10.8a103 103 0 0 0 -14.7-9c-6.2-3-10.8-4.7-14.7-5a20 20 0 0 0 -8.7.5 9 9 0 0 0 -4.1 4.1q-1.2 3-.3 5.7c.7 2 3.4 4.3 10.4 8.6 5.2 3.1 12 8 15.1 10.8 3.5 3 8.7 9.4 13.2 16.2a1102 1102 0 0 1 32.4 52.7c3 5.2 7.7 12.5 10.3 16.1s6.4 7.4 8.2 8.3m-685.8-34.4c3.3.5 13.2.7 22 .4s27.3-1.2 41-2l56-2.9c17-.8 38.7-1.9 48-2.5 9.3-.5 29-1.5 43.5-2l46.5-2 61-3a7089 7089 0 0 0 108.2-6c8.7-.5 28.6-1.4 44.3-2a1626 1626 0 0 0 40.5-1.9c9-.6 13.4-1.4 17.4-3.1 3-1.3 6.2-3.3 7.2-4.4 1-1 1.9-3.1 1.9-4.5s-.7-3.4-1.4-4.3c-.7-1-3-2.5-4.9-3.3s-6-1.7-8.9-2-15.3-.2-27.6.4a7558 7558 0 0 0 -100.7 4.6l-53.6 2.5-42 2-44.8 2.5-56 3a9789 9789 0 0 1 -119.5 6l-49.6 2.5c-10 .6-22.7 2-28.2 3a80 80 0 0 0 -13.4 3.6c-2.1 1-3.8 2.6-4.1 4a6 6 0 0 0 1 4.8c.8 1.3 3.4 3.1 5.8 4 2.4 1 7 2 10.3 2.6"/></g></g></svg>